<svg width="48" height="48" viewBox="0 0 48 48" fill="none" xmlns="http://www.w3.org/2000/svg">
<path d="M29 8H19C16.79 8 15 9.79 15 12V14H19V12H29V14H33V12C33 9.79 31.21 8 29 8Z" fill="#D2C0F4"/>
<path d="M21 25.72V25C21 24.45 21.45 24 22 24H26C26.55 24 27 24.45 27 25V25.72L40 20.52V20C40 17.79 38.21 16 36 16H12C9.79 16 8 17.79 8 20V20.52L21 25.72Z" fill="#D2C0F4"/>
<path d="M27 27.8799V29.9999C27 30.5499 26.55 30.9999 26 30.9999H22C21.45 30.9999 21 30.5499 21 29.9999V27.8799L8 22.6799V35.9999C8 38.2099 9.79 39.9999 12 39.9999H36C38.21 39.9999 40 38.2099 40 35.9999V22.6799L27 27.8799Z" fill="#D2C0F4"/>
<path d="M25 27.18V26H23V27.18V29H25V27.18Z" fill="#D2C0F4"/>
</svg>
