<svg width="120" height="1059" viewBox="0 0 120 1059" fill="none" xmlns="http://www.w3.org/2000/svg">
    <path opacity="0.5" fill-rule="evenodd" clip-rule="evenodd" d="M181.432 1059L2.87783 1059L2.87783 986.404C2.87783 967.951 9.29517 953.896 19.3322 944.486C29.2652 935.174 42.2835 930.84 54.8579 930.84C67.7235 930.84 78.7887 934.954 86.6795 942.508C95.6507 929.693 110.146 923.077 125.768 923.077C141.721 923.077 155.795 927.767 165.906 937.638C176.052 947.545 181.432 961.91 181.432 979.683L181.432 1059ZM91.0545 947.491C89.7681 949.488 88.6322 951.646 87.6653 953.961C86.4139 951.862 84.9479 949.932 83.2814 948.188C76.6698 941.268 66.902 937.277 54.8579 937.277C32.5259 937.277 9.27302 952.687 9.27302 986.404L9.27302 1052.56L175.036 1052.56L175.036 979.683C175.036 946.778 155.237 929.514 125.768 929.514C111.494 929.514 98.6506 935.699 91.0545 947.491ZM107.759 1017.85L142.51 1017.85L142.51 983.159C142.51 977.211 140.646 972.472 137.746 969.291C134.902 966.169 130.672 964.106 124.962 964.106C119.731 964.106 115.528 965.855 112.654 968.718C109.807 971.554 107.759 975.99 107.759 982.348L107.759 1017.85ZM41.5687 1017.85L69.068 1017.85L69.068 986.751C69.068 981.992 67.6968 978.381 65.6025 976.039C63.5955 973.796 60.3815 972.101 55.3184 972.101C51.0335 972.101 47.6988 973.544 45.4513 975.806C43.2205 978.051 41.5687 981.601 41.5687 986.751L41.5687 1017.85ZM167.469 816.873C165.585 814.525 163.495 812.379 161.223 810.436L175.036 810.436L175.036 785.757L50.7138 785.757L50.7138 813.796L114.602 813.796C144.762 813.796 152.474 828.859 152.474 843.11C152.474 869.76 125.883 872.309 110.573 872.309L50.7138 872.309L50.7138 900.58L120.127 900.58C134.862 900.58 178.605 897.451 178.605 851.337C178.605 837.098 174.461 825.591 167.469 816.873ZM175.39 816.873C181.524 826.18 185 837.749 185 851.337C185 863.932 181.998 874.018 176.919 881.968C171.855 889.892 164.973 895.309 157.793 898.988C143.629 906.244 127.758 907.017 120.127 907.017L44.3187 907.017L44.3187 865.872L110.573 865.872C118.088 865.872 127.367 865.204 134.59 861.856C138.094 860.232 140.884 858.078 142.816 855.26C144.718 852.484 146.079 848.642 146.079 843.11C146.079 837.102 144.468 831.694 140.402 827.736C136.309 823.751 128.702 820.233 114.602 820.233L44.3187 820.233L44.3186 779.32L181.432 779.32L181.432 816.873L175.39 816.873ZM95.2832 684.407L95.2875 684.39C95.675 682.882 96.0701 681.41 96.4742 679.976L89.9414 680.905C86.2965 681.423 83.6038 683.089 81.6386 685.739C79.5863 688.507 78.063 692.73 77.7059 698.618C77.4606 704.359 78.4954 708.468 79.9043 710.893C81.1903 713.106 82.5994 713.745 84.0967 713.745C85.1543 713.745 85.3371 713.578 85.3446 713.571C85.4554 713.498 86.0749 713.045 87.0691 711.118C89.1781 707.03 91.5475 699.271 95.279 684.423L95.2832 684.407ZM71.3191 698.284C72.0842 685.413 77.8298 676.929 87.4724 674.815C87.9861 674.702 88.5109 674.607 89.0466 674.531L83.9816 646.028C82.9092 646.179 81.855 646.369 80.82 646.598C79.7705 646.83 78.7406 647.102 77.7309 647.413C59.001 653.183 47.2604 672.373 47.2604 698.747C47.2604 728.525 62.2252 747.99 85.4781 747.99C104.126 747.99 113.451 736.983 121.624 705.583C129.106 677.312 131.178 673.72 139.581 673.72C148.79 673.72 154.431 681.483 154.431 694.808C154.431 710.102 146.949 720.762 134.632 723.542L139.006 752.045C141.17 751.685 143.254 751.207 145.257 750.613C166.475 744.317 178.49 725.046 178.49 696.777C178.49 664.567 163.295 645.101 138.315 645.101C118.976 645.101 109.191 655.993 101.479 686.002C94.1116 715.316 91.3489 720.182 84.0967 720.182C75.8086 720.182 70.7436 711.377 71.3191 698.284ZM96.4966 679.896L89.1937 638.799L83.1001 639.653C56.5233 643.376 40.8652 667.577 40.8652 698.747C40.8652 714.65 44.8563 728.481 52.6046 738.491C60.472 748.655 71.8928 754.427 85.4781 754.427C96.3207 754.427 105.227 751.101 112.335 742.75C119.016 734.902 123.678 723.085 127.807 707.228C131.628 692.791 133.814 685.776 135.816 682.232C136.67 680.721 137.16 680.472 137.221 680.44L137.224 680.439C137.36 680.368 137.84 680.157 139.581 680.157C142.156 680.157 143.916 681.123 145.257 683.011C146.778 685.152 148.036 688.943 148.036 694.808C148.036 707.849 141.952 715.293 133.232 717.262L127.399 718.578L133.672 759.456L140.048 758.396C154.145 756.053 165.56 749.114 173.351 738.206C181.066 727.404 184.885 713.205 184.885 696.777C184.885 679.744 180.876 665.262 172.804 654.891C164.584 644.33 152.626 638.664 138.315 638.664C127.251 638.664 118.088 641.877 110.798 649.976C104.585 656.878 100.171 666.871 96.4966 679.896ZM38.2304 615.732L-1.93758e-05 615.732L-2.11592e-05 574.935L38.2304 574.935L38.2304 615.732ZM181.432 615.732L44.3186 615.732L44.3186 574.935L181.432 574.935L181.432 615.732ZM31.8352 581.372L31.8352 609.295L6.39517 609.295L6.39517 581.372L31.8352 581.372ZM175.036 581.372L175.036 609.295L50.7138 609.295L50.7138 581.372L175.036 581.372ZM181.432 458.439L115.177 458.439C107.662 458.439 98.3827 459.107 91.1604 462.455C87.6558 464.079 84.8659 466.232 82.9343 469.051C81.0318 471.827 79.6712 475.668 79.6712 481.2C79.6712 487.209 81.2822 492.616 85.3483 496.575C89.4415 500.559 97.0484 504.077 111.148 504.077L181.432 504.077L181.432 545.223L44.3186 545.223L44.3186 507.437L50.36 507.437C44.226 498.131 40.7501 486.562 40.7501 472.974C40.7501 460.379 43.7517 450.293 48.8316 442.343C53.8955 434.418 60.7767 429.002 67.9577 425.323C82.1207 418.067 97.9919 417.294 105.623 417.294L181.432 417.294L181.432 458.439ZM58.2814 507.437C60.1651 509.786 62.2555 511.932 64.5274 513.874L50.7138 513.874L50.7138 538.786L175.036 538.786L175.036 510.514L111.148 510.514C80.9887 510.514 73.2761 495.452 73.2761 481.2C73.2761 454.551 99.8673 452.002 115.177 452.002L175.036 452.002L175.036 423.731L105.623 423.731C90.8884 423.731 47.1453 426.859 47.1453 472.974C47.1453 487.213 51.2888 498.72 58.2814 507.437ZM138.975 266.543L145.529 269.336C170.645 280.042 184.885 304.06 184.885 330.531C184.885 351.087 177.694 368.759 165.013 381.296C152.344 393.822 134.612 400.81 114.256 400.81C92.5603 400.81 74.1547 394.038 61.1136 381.786C48.0373 369.502 40.8652 352.18 40.8652 332.154C40.8652 311.047 48.699 293.693 63.168 282.19C77.498 270.797 97.5618 265.751 121.047 267.453L126.983 267.883L126.983 356.821C132.583 355.366 136.756 353.013 139.699 350.059C143.678 346.065 146.079 340.299 146.079 332.154C146.079 320.79 141.133 312.973 132.026 308.665L127.025 306.299L138.975 266.543ZM126.983 363.439C143.435 359.751 152.474 349.077 152.474 332.154C152.474 318.481 146.258 308.285 134.747 302.84L143.035 275.263C145.053 276.124 146.995 277.08 148.856 278.125C167.801 288.757 178.49 308.588 178.49 330.531C178.49 368.535 152.014 394.373 114.256 394.373C73.5063 394.373 47.2604 368.999 47.2604 332.154C47.2604 293.339 75.8085 270.629 120.588 273.873L120.588 364.48C122.829 364.239 124.962 363.892 126.983 363.439ZM99.637 363.785L99.637 302.144C97.358 302.429 95.2274 302.807 93.2418 303.278C78.2785 306.834 71.5494 315.753 71.5494 330.995C71.5494 347.457 78.9873 357.77 93.2418 362.246C95.2402 362.873 97.3725 363.386 99.637 363.785ZM93.2418 355.445L93.2418 309.92C88.3963 311.263 85.1004 313.2 82.8824 315.496C79.8127 318.673 77.9445 323.437 77.9445 330.995C77.9445 339.257 80.0529 344.997 83.5056 348.981C85.802 351.63 88.9803 353.835 93.2418 355.445ZM95.2831 179.223L95.2875 179.206C95.675 177.698 96.0701 176.227 96.4741 174.792L89.9414 175.721C86.2964 176.24 83.6038 177.906 81.6385 180.556C79.5863 183.323 78.063 187.547 77.7059 193.435C77.4606 199.176 78.4953 203.285 79.9043 205.709C81.1903 207.923 82.5994 208.562 84.0967 208.562C85.1738 208.562 85.3435 208.388 85.3448 208.387C85.4556 208.315 86.0748 207.862 87.069 205.935C89.1781 201.847 91.5474 194.087 95.2789 179.24L95.2831 179.223ZM71.3191 193.1C72.0842 180.229 77.8302 171.745 87.4734 169.631C87.9864 169.519 88.5106 169.424 89.0455 169.348C89.0452 169.348 89.0459 169.348 89.0455 169.348L83.9816 140.845C83.9819 140.845 83.9813 140.845 83.9816 140.845C82.9099 140.995 81.8554 141.185 80.821 141.414C79.7711 141.646 78.7409 141.918 77.7309 142.229C59.0009 148 47.2604 167.189 47.2604 193.564C47.2604 223.341 62.2252 242.807 85.4781 242.807C104.126 242.807 113.451 231.799 121.624 200.4C129.106 172.129 131.178 168.537 139.581 168.537C148.79 168.537 154.431 176.3 154.431 189.624C154.431 204.919 146.949 215.578 134.631 218.359L139.006 246.862C141.17 246.502 143.254 246.024 145.257 245.429C166.475 239.133 178.49 219.862 178.49 191.594C178.49 159.383 163.295 139.918 138.315 139.918C118.976 139.918 109.191 150.809 101.479 180.819C94.1116 210.133 91.3488 214.999 84.0967 214.999C75.8085 214.999 70.7436 206.193 71.3191 193.1ZM127.806 202.047C123.678 217.903 119.016 229.719 112.335 237.566C105.227 245.917 96.3207 249.244 85.4781 249.244C71.8927 249.244 60.4719 243.472 52.6046 233.308C44.8563 223.297 40.8652 209.467 40.8652 193.564C40.8652 162.394 56.5232 138.192 83.1 134.469L89.1937 133.616L96.4966 174.713C100.171 161.688 104.585 151.695 110.798 144.793C118.088 136.694 127.251 133.481 138.315 133.481C152.626 133.481 164.584 139.146 172.804 149.707C180.876 160.078 184.885 174.561 184.885 191.594C184.885 208.022 181.066 222.221 173.351 233.022C165.56 243.931 154.145 250.87 140.048 253.213L133.672 254.273L127.399 213.395L133.232 212.078C141.952 210.109 148.036 202.665 148.036 189.624C148.036 183.759 146.778 179.969 145.257 177.827C143.916 175.939 142.156 174.974 139.581 174.974C137.84 174.974 137.36 175.184 137.224 175.255C137.18 175.278 136.688 175.506 135.816 177.048C133.814 180.592 131.628 187.608 127.806 202.047ZM95.2831 45.7423L95.2874 45.7256C95.675 44.2175 96.0701 42.7462 96.4741 41.3115L89.9414 42.2406C86.2964 42.759 83.6038 44.4247 81.6385 47.0748C79.5863 49.8422 78.063 54.0662 77.7059 59.9542C77.4606 65.6949 78.4953 69.8041 79.9043 72.2286C81.1903 74.4417 82.5994 75.081 84.0967 75.081C85.1738 75.081 85.3435 74.9073 85.3448 74.9066C85.4556 74.8339 86.0748 74.3812 87.069 72.454C89.1781 68.3661 91.5474 60.6065 95.2789 45.759L95.2831 45.7423ZM71.3191 59.6194C72.0842 46.7484 77.8302 38.2642 87.4734 36.1501C87.9864 36.0377 88.5105 35.9433 89.0455 35.8671C89.0452 35.8671 89.0459 35.8671 89.0455 35.8671L83.9816 7.36401C83.9819 7.36401 83.9813 7.36401 83.9816 7.36401C82.9099 7.51416 81.8554 7.70422 80.821 7.93298C79.7711 8.16516 78.7409 8.43725 77.7309 8.74841C59.0009 14.519 47.2604 33.7085 47.2604 60.0829C47.2604 89.8603 62.2252 109.326 85.4781 109.326C104.126 109.326 113.451 98.3185 121.624 66.9189C129.106 38.6477 131.178 35.0559 139.581 35.0559C148.79 35.0559 154.431 42.8188 154.431 56.1435C154.431 71.4377 146.949 82.0973 134.631 84.8781L139.006 113.381C141.17 113.021 143.254 112.543 145.257 111.949C166.475 105.653 178.49 86.3814 178.49 58.1132C178.49 25.9025 163.295 6.437 138.315 6.43701C118.976 6.43701 109.191 17.3285 101.479 47.3376C94.1116 76.6517 91.3488 81.518 84.0967 81.518C75.8085 81.518 70.7435 72.7123 71.3191 59.6194ZM127.806 68.5656C123.678 84.4221 119.016 96.2378 112.335 104.085C105.227 112.436 96.3207 115.763 85.4781 115.763C71.8927 115.763 60.4719 109.991 52.6045 99.827C44.8563 89.8166 40.8652 75.9859 40.8652 60.0829C40.8652 28.9128 56.5232 4.71142 83.1 0.9884L89.1936 0.134762L96.4966 41.2317C100.171 28.2069 104.585 18.2139 110.798 11.3119C118.088 3.21264 127.251 -5.5623e-06 138.315 -6.04595e-06C152.626 -6.6715e-06 164.584 5.66528 172.804 16.2264C180.876 26.5976 184.885 41.0798 184.885 58.1132C184.885 74.5408 181.066 88.7397 173.351 99.5413C165.56 110.45 154.145 117.389 140.048 119.732L133.672 120.792L127.399 79.9141L133.232 78.5972C141.952 76.6286 148.036 69.1843 148.036 56.1435C148.036 50.2783 146.778 46.4878 145.257 44.3464C143.916 42.4585 142.156 41.4929 139.581 41.4929C137.84 41.4929 137.36 41.7034 137.224 41.7743L137.221 41.776C137.16 41.8074 136.67 42.0571 135.816 43.5676C133.814 47.1115 131.628 54.1272 127.806 68.5656ZM148.906 1024.29L148.906 983.159C148.906 968.56 139.697 957.669 124.962 957.669C111.609 957.669 101.364 966.707 101.364 982.348L101.364 1024.29L148.906 1024.29ZM75.4632 1024.29L75.4632 986.751C75.4632 974.817 68.5564 965.664 55.3184 965.664C43.807 965.664 35.1735 973.543 35.1735 986.751L35.1735 1024.29L75.4632 1024.29Z" fill="#C7BAE9"/>
</svg>
