<svg width="814" height="135" viewBox="0 0 814 135" fill="none" xmlns="http://www.w3.org/2000/svg">
    <path opacity="0.5" d="M0.6 132H-4.4V137H0.6V132ZM77.19 63.69L74.6175 59.4025L66.1592 64.4775L75.2527 68.2994L77.19 63.69ZM0.6 2.39999V-2.60001H-4.4V2.39999H0.6ZM22.56 111.57H17.56V116.57H22.56V111.57ZM22.56 74.4V69.4H17.56V74.4H22.56ZM22.56 54.15H17.56V59.15H22.56V54.15ZM22.56 22.65V17.65H17.56V22.65H22.56ZM0.6 137H57.21V127H0.6V137ZM57.21 137C71.0155 137 82.1741 132.794 89.869 124.861C97.537 116.956 101.18 105.953 101.18 93.48H91.18C91.18 104.047 88.118 112.304 82.691 117.899C77.2909 123.466 68.9645 127 57.21 127V137ZM101.18 93.48C101.18 78.6825 93.636 65.1784 79.1273 59.0806L75.2527 68.2994C85.584 72.6416 91.18 82.1775 91.18 93.48H101.18ZM79.7625 67.9775C89.623 62.0611 95.15 51.2677 95.15 38.04H85.15C85.15 48.3923 80.957 55.5989 74.6175 59.4025L79.7625 67.9775ZM95.15 38.04C95.15 28.2088 91.7836 18.0307 84.55 10.2646C77.2407 2.41731 66.3233 -2.60001 51.99 -2.60001V7.39999C63.8467 7.39999 72.0093 11.4727 77.2325 17.0804C82.5314 22.7693 85.15 30.4112 85.15 38.04H95.15ZM51.99 -2.60001H0.6V7.39999H51.99V-2.60001ZM-4.4 2.39999V132H5.6V2.39999H-4.4ZM27.56 111.57V74.4H17.56V111.57H27.56ZM22.56 79.4H55.14V69.4H22.56V79.4ZM55.14 79.4C60.079 79.4 63.5243 81.0013 65.7276 83.2274C67.9513 85.4739 69.31 88.7606 69.31 92.85H79.31C79.31 86.4995 77.1588 80.5611 72.8349 76.1926C68.4907 71.8037 62.351 69.4 55.14 69.4V79.4ZM69.31 92.85C69.31 97.3147 67.7074 100.621 65.2828 102.845C62.8113 105.112 59.1305 106.57 54.51 106.57V116.57C61.2295 116.57 67.4487 114.428 72.0422 110.215C76.6826 105.959 79.31 99.9053 79.31 92.85H69.31ZM54.51 106.57H22.56V116.57H54.51V106.57ZM27.56 54.15V22.65H17.56V54.15H27.56ZM22.56 27.65H51.72V17.65H22.56V27.65ZM51.72 27.65C55.7209 27.65 58.4778 28.9414 60.222 30.6855C61.9791 32.4427 63.1 35.0499 63.1 38.4H73.1C73.1 32.7501 71.1609 27.4823 67.293 23.6145C63.4122 19.7336 57.9791 17.65 51.72 17.65V27.65ZM63.1 38.4C63.1 42.3585 61.7834 44.8713 60.0406 46.4405C58.222 48.0779 55.417 49.15 51.72 49.15V59.15C57.293 59.15 62.678 57.5221 66.7319 53.872C70.8616 50.1537 73.1 44.7915 73.1 38.4H63.1ZM51.72 49.15H22.56V59.15H51.72V49.15ZM188.675 121.2H193.675V107.591L184.864 117.963L188.675 121.2ZM188.675 132H183.675V137H188.675V132ZM207.845 132V137H212.845V132H207.845ZM207.845 34.8H212.845V29.8H207.845V34.8ZM186.065 34.8V29.8H181.065V34.8H186.065ZM140.615 34.8H145.615V29.8H140.615V34.8ZM118.655 34.8V29.8H113.655V34.8H118.655ZM156.905 139.79C172.295 139.79 184.352 134.012 192.485 124.437L184.864 117.963C178.777 125.128 169.594 129.79 156.905 129.79V139.79ZM183.675 121.2V132H193.675V121.2H183.675ZM188.675 137H207.845V127H188.675V137ZM212.845 132V34.8H202.845V132H212.845ZM207.845 29.8H186.065V39.8H207.845V29.8ZM181.065 34.8V84.75H191.065V34.8H181.065ZM181.065 84.75C181.065 95.7739 178.332 101.721 175.237 104.921C172.162 108.1 167.962 109.36 163.295 109.36V119.36C169.697 119.36 176.882 117.605 182.425 111.874C187.947 106.164 191.065 97.3061 191.065 84.75H181.065ZM163.295 109.36C158.998 109.36 156.014 108.296 153.857 106.809C151.668 105.299 149.996 103.117 148.734 100.377C146.133 94.7307 145.615 87.4759 145.615 81.6H135.615C135.615 87.6941 136.086 96.8194 139.651 104.56C141.471 108.514 144.175 112.278 148.179 115.04C152.216 117.825 157.242 119.36 163.295 119.36V109.36ZM145.615 81.6V34.8H135.615V81.6H145.615ZM140.615 29.8H118.655V39.8H140.615V29.8ZM113.655 34.8V89.07H123.655V34.8H113.655ZM113.655 89.07C113.655 95.0362 114.255 107.445 119.891 118.518C122.749 124.132 126.956 129.512 133.112 133.472C139.287 137.443 147.122 139.79 156.905 139.79V129.79C148.778 129.79 142.876 127.862 138.521 125.061C134.147 122.248 131.03 118.358 128.803 113.982C124.27 105.075 123.655 94.6238 123.655 89.07H113.655ZM285.33 74.49L286.583 69.6493L286.57 69.646L286.557 69.6427L285.33 74.49ZM275.79 50.91L276.089 45.9189L276.05 45.9166L276.012 45.9149L275.79 50.91ZM294.24 64.77L289.29 65.4696L290.015 70.6051L295.121 69.6919L294.24 64.77ZM316.38 60.81L317.261 65.7319L321.996 64.885L321.333 60.1208L316.38 60.81ZM270.12 90.24L271.408 85.4085L271.398 85.4058L271.388 85.4032L270.12 90.24ZM256.17 100.41L261.049 99.3157L260.026 94.7551L255.407 95.4686L256.17 100.41ZM234.03 103.83L233.267 98.8886L228.274 99.6599L229.097 104.645L234.03 103.83ZM276.96 139.7C290.191 139.7 301.44 136.566 309.496 130.255C317.7 123.828 322.1 114.479 322.1 103.29H312.1C312.1 111.631 308.941 117.987 303.33 122.383C297.57 126.894 288.75 129.7 276.96 129.7V139.7ZM322.1 103.29C322.1 94.6393 319.605 87.476 313.314 81.7759C307.352 76.3741 298.42 72.7116 286.583 69.6493L284.078 79.3307C295.551 82.2984 302.504 85.4759 306.6 89.1866C310.366 92.599 312.1 96.8207 312.1 103.29H322.1ZM286.557 69.6427C275.024 66.7253 268.996 64.8728 265.821 63.2239C264.324 62.4466 263.972 61.9624 263.916 61.8758C263.915 61.8748 263.78 61.7421 263.78 60.9H253.78C253.78 62.8929 254.118 65.1565 255.538 67.3352C256.902 69.4282 258.918 70.9072 261.212 72.0986C265.62 74.3872 272.867 76.4947 284.104 79.3373L286.557 69.6427ZM263.78 60.9C263.78 59.7293 264.277 58.6277 265.996 57.6222C267.885 56.5174 271.09 55.7069 275.569 55.9051L276.012 45.9149C270.321 45.6631 265.021 46.6076 260.947 48.9903C256.704 51.4723 253.78 55.5907 253.78 60.9H263.78ZM275.492 55.9011C280.086 56.1759 283.379 57.369 285.535 58.9781C287.593 60.5146 288.887 62.6198 289.29 65.4696L299.191 64.0704C298.424 58.6402 295.758 54.1304 291.516 50.9644C287.372 47.8709 282.025 46.2741 276.089 45.9189L275.492 55.9011ZM295.121 69.6919L317.261 65.7319L315.5 55.8881L293.36 59.8481L295.121 69.6919ZM321.333 60.1208C318.441 39.342 299.642 27.1 275.43 27.1V37.1C296.579 37.1 309.46 47.358 311.428 61.4992L321.333 60.1208ZM275.43 27.1C263.078 27.1 252.334 30.2203 244.559 36.2782C236.664 42.4293 232.18 51.3585 232.18 61.98H242.18C242.18 54.4215 245.257 48.4107 250.705 44.1668C256.272 39.8297 264.653 37.1 275.43 37.1V27.1ZM232.18 61.98C232.18 70.4572 234.764 77.4203 241.251 82.9781C247.349 88.2029 256.531 91.8483 268.853 95.0768L271.388 85.4032C259.32 82.2417 252.032 79.0471 247.758 75.3844C243.872 72.0547 242.18 68.0828 242.18 61.98H232.18ZM268.833 95.0715C280.054 98.0606 285.505 99.7707 288.259 101.336C289.457 102.018 289.634 102.403 289.652 102.437C289.707 102.544 289.87 102.919 289.87 104.28H299.87C299.87 102.356 299.685 100.065 298.531 97.8372C297.34 95.5373 295.446 93.9198 293.202 92.6435C289.07 90.2943 282.147 88.2694 271.408 85.4085L268.833 95.0715ZM289.87 104.28C289.87 106.293 289.12 107.669 287.654 108.717C285.991 109.907 283.046 110.89 278.49 110.89V120.89C284.285 120.89 289.53 119.668 293.469 116.853C297.606 113.896 299.87 109.467 299.87 104.28H289.87ZM278.49 110.89C268.361 110.89 262.578 106.133 261.049 99.3157L251.292 101.504C254.083 113.947 264.86 120.89 278.49 120.89V110.89ZM255.407 95.4686L233.267 98.8886L234.794 108.771L256.934 105.351L255.407 95.4686ZM229.097 104.645C230.917 115.666 236.307 124.591 244.781 130.682C253.171 136.714 264.2 139.7 276.96 139.7V129.7C265.691 129.7 256.875 127.061 250.618 122.563C244.444 118.124 240.384 111.614 238.964 103.015L229.097 104.645ZM344.913 20.04H339.913V25.04H344.913V20.04ZM366.603 20.04V25.04H371.603V20.04H366.603ZM366.603 0.149997H371.603V-4.85H366.603V0.149997ZM344.913 0.149997V-4.85H339.913V0.149997H344.913ZM344.913 132H339.913V137H344.913V132ZM366.603 132V137H371.603V132H366.603ZM366.603 34.8H371.603V29.8H366.603V34.8ZM344.913 34.8V29.8H339.913V34.8H344.913ZM344.913 25.04H366.603V15.04H344.913V25.04ZM371.603 20.04V0.149997H361.603V20.04H371.603ZM366.603 -4.85H344.913V5.15H366.603V-4.85ZM339.913 0.149997V20.04H349.913V0.149997H339.913ZM344.913 137H366.603V127H344.913V137ZM371.603 132V34.8H361.603V132H371.603ZM366.603 29.8H344.913V39.8H366.603V29.8ZM339.913 34.8V132H349.913V34.8H339.913ZM467.093 132H462.093V137H467.093V132ZM489.053 132V137H494.053V132H489.053ZM419.033 45.6H414.033V59.2092L422.843 48.837L419.033 45.6ZM419.033 34.8H424.033V29.8H419.033V34.8ZM399.683 34.8V29.8H394.683V34.8H399.683ZM399.683 132H394.683V137H399.683V132ZM421.643 132V137H426.643V132H421.643ZM462.093 85.2V132H472.093V85.2H462.093ZM467.093 137H489.053V127H467.093V137ZM494.053 132V77.73H484.053V132H494.053ZM494.053 77.73C494.053 71.7638 493.452 59.3551 487.816 48.2819C484.958 42.6675 480.751 37.2875 474.595 33.3284C468.42 29.3567 460.586 27.01 450.803 27.01V37.01C458.93 37.01 464.831 38.9383 469.186 41.7391C473.56 44.5525 476.677 48.4425 478.904 52.8181C483.438 61.7249 484.053 72.1762 484.053 77.73H494.053ZM450.803 27.01C435.412 27.01 423.355 32.7883 415.222 42.3629L422.843 48.837C428.93 41.6717 438.113 37.01 450.803 37.01V27.01ZM424.033 45.6V34.8H414.033V45.6H424.033ZM419.033 29.8H399.683V39.8H419.033V29.8ZM394.683 34.8V132H404.683V34.8H394.683ZM399.683 137H421.643V127H399.683V137ZM426.643 132V82.05H416.643V132H426.643ZM426.643 82.05C426.643 71.0261 429.375 65.0787 432.47 61.8785C435.545 58.6995 439.745 57.44 444.413 57.44V47.44C438.01 47.44 430.825 49.1955 425.282 54.9264C419.76 60.6363 416.643 69.4939 416.643 82.05H426.643ZM444.413 57.44C448.71 57.44 451.694 58.5037 453.85 59.9912C456.039 61.5014 457.712 63.6826 458.973 66.4227C461.574 72.0693 462.093 79.3241 462.093 85.2H472.093C472.093 79.1059 471.621 69.9806 468.057 62.2398C466.236 58.2861 463.532 54.5218 459.528 51.7597C455.491 48.975 450.466 47.44 444.413 47.44V57.44ZM604.376 106.98L608.98 108.93L611.15 103.806L605.824 102.194L604.376 106.98ZM582.956 100.5L584.404 95.7142L580.269 94.4632L578.431 98.3732L582.956 100.5ZM535.076 89.43V84.43H529.514L530.104 89.9607L535.076 89.43ZM605.456 89.43V94.43H610.109L610.443 89.789L605.456 89.43ZM535.616 73.05L530.691 72.1881L529.665 78.05H535.616V73.05ZM583.496 73.05V78.05H589.156L588.458 72.4334L583.496 73.05ZM561.446 139.7C582.008 139.7 600.665 128.567 608.98 108.93L599.772 105.03C593.148 120.673 578.324 129.7 561.446 129.7V139.7ZM605.824 102.194L584.404 95.7142L581.508 105.286L602.928 111.766L605.824 102.194ZM578.431 98.3732C575.085 105.493 569.013 109.36 560.186 109.36V119.36C572.6 119.36 582.368 113.507 587.481 102.627L578.431 98.3732ZM560.186 109.36C553.859 109.36 549.38 107.483 546.278 104.372C543.104 101.19 540.824 96.1673 540.048 88.8993L530.104 89.9607C531.039 98.7127 533.933 106.155 539.197 111.433C544.532 116.782 551.753 119.36 560.186 119.36V109.36ZM535.076 94.43H605.456V84.43H535.076V94.43ZM610.443 89.789C611.765 71.4275 607.845 55.7409 598.996 44.5372C590.061 33.2247 576.581 27.1 560.186 27.1V37.1C573.941 37.1 584.356 42.1353 591.149 50.7353C598.027 59.4441 601.667 72.4225 600.469 89.071L610.443 89.789ZM560.186 27.1C544.63 27.1 531.175 32.7074 521.633 42.9309C512.117 53.127 506.856 67.5171 506.856 84.48H516.856C516.856 69.5829 521.45 57.783 528.944 49.7541C536.412 41.7526 547.122 37.1 560.186 37.1V27.1ZM506.856 84.48C506.856 100.395 512.285 114.258 522.014 124.164C531.752 134.078 545.48 139.7 561.446 139.7V129.7C547.893 129.7 536.825 124.972 529.148 117.156C521.463 109.332 516.856 98.0851 516.856 84.48H506.856ZM540.541 73.9119C541.669 67.4691 543.994 63.1605 547.116 60.4378C550.21 57.7384 554.669 56.09 561.086 56.09V46.09C552.924 46.09 545.907 48.2216 540.542 52.9021C535.203 57.5595 532.084 64.2309 530.691 72.1881L540.541 73.9119ZM561.086 56.09C566.957 56.09 570.658 57.5506 573.125 59.9506C575.678 62.4338 577.662 66.6448 578.534 73.6666L588.458 72.4334C587.441 64.2452 584.924 57.4762 580.097 52.7819C575.185 48.0044 568.625 46.09 561.086 46.09V56.09ZM583.496 68.05H535.616V78.05H583.496V68.05ZM677.737 74.49L678.99 69.6493L678.977 69.646L678.964 69.6427L677.737 74.49ZM668.198 50.91L668.496 45.9189L668.457 45.9166L668.419 45.9149L668.198 50.91ZM686.647 64.77L681.697 65.4696L682.422 70.6051L687.528 69.6919L686.647 64.77ZM708.787 60.81L709.668 65.7319L714.403 64.885L713.74 60.1208L708.787 60.81ZM662.527 90.24L663.815 85.4085L663.805 85.4058L663.795 85.4032L662.527 90.24ZM648.578 100.41L653.456 99.3157L652.433 94.7551L647.814 95.4686L648.578 100.41ZM626.438 103.83L625.674 98.8886L620.681 99.6599L621.504 104.645L626.438 103.83ZM669.367 139.7C682.598 139.7 693.848 136.566 701.903 130.255C710.107 123.828 714.508 114.479 714.508 103.29H704.508C704.508 111.631 701.348 117.987 695.737 122.383C689.977 126.894 681.157 129.7 669.367 129.7V139.7ZM714.508 103.29C714.508 94.6393 712.012 87.476 705.721 81.7759C699.759 76.3741 690.827 72.7116 678.99 69.6493L676.485 79.3307C687.958 82.2984 694.911 85.4759 699.007 89.1866C702.773 92.599 704.508 96.8207 704.508 103.29H714.508ZM678.964 69.6427C667.431 66.7253 661.403 64.8728 658.228 63.2239C656.731 62.4466 656.379 61.9624 656.323 61.8758C656.322 61.8748 656.188 61.7421 656.188 60.9H646.188C646.188 62.8929 646.525 65.1565 647.945 67.3352C649.309 69.4282 651.325 70.9072 653.619 72.0986C658.027 74.3872 665.274 76.4947 676.511 79.3373L678.964 69.6427ZM656.188 60.9C656.188 59.7293 656.684 58.6277 658.403 57.6222C660.292 56.5174 663.497 55.7069 667.976 55.9051L668.419 45.9149C662.728 45.6631 657.428 46.6076 653.354 48.9903C649.111 51.4723 646.188 55.5907 646.188 60.9H656.188ZM667.899 55.9011C672.493 56.1759 675.786 57.369 677.942 58.9781C680 60.5146 681.294 62.6198 681.697 65.4696L691.598 64.0704C690.831 58.6402 688.165 54.1304 683.923 50.9644C679.779 47.8709 674.432 46.2741 668.496 45.9189L667.899 55.9011ZM687.528 69.6919L709.668 65.7319L707.907 55.8881L685.767 59.8481L687.528 69.6919ZM713.74 60.1208C710.848 39.342 692.049 27.1 667.837 27.1V37.1C688.986 37.1 701.867 47.358 703.835 61.4992L713.74 60.1208ZM667.837 27.1C655.485 27.1 644.741 30.2203 636.966 36.2782C629.071 42.4293 624.587 51.3585 624.587 61.98H634.587C634.587 54.4215 637.664 48.4107 643.112 44.1668C648.679 39.8297 657.06 37.1 667.837 37.1V27.1ZM624.587 61.98C624.587 70.4572 627.171 77.4203 633.658 82.9781C639.756 88.2029 648.938 91.8483 661.26 95.0768L663.795 85.4032C651.727 82.2417 644.439 79.0471 640.164 75.3844C636.279 72.0547 634.587 68.0828 634.587 61.98H624.587ZM661.24 95.0715C672.461 98.0606 677.912 99.7707 680.666 101.336C681.864 102.018 682.041 102.403 682.059 102.437C682.114 102.544 682.277 102.919 682.277 104.28H692.277C692.277 102.356 692.092 100.065 690.938 97.8372C689.747 95.5373 687.853 93.9198 685.609 92.6435C681.477 90.2943 674.554 88.2694 663.815 85.4085L661.24 95.0715ZM682.277 104.28C682.277 106.293 681.527 107.669 680.061 108.717C678.398 109.907 675.453 110.89 670.897 110.89V120.89C676.692 120.89 681.937 119.668 685.876 116.853C690.013 113.896 692.277 109.467 692.277 104.28H682.277ZM670.897 110.89C660.768 110.89 654.985 106.133 653.456 99.3157L643.699 101.504C646.49 113.947 657.267 120.89 670.897 120.89V110.89ZM647.814 95.4686L625.674 98.8886L627.201 108.771L649.341 105.351L647.814 95.4686ZM621.504 104.645C623.324 115.666 628.714 124.591 637.188 130.682C645.578 136.714 656.607 139.7 669.367 139.7V129.7C658.098 129.7 649.282 127.061 643.025 122.563C636.851 118.124 632.791 111.614 631.371 103.015L621.504 104.645ZM781.42 74.49L782.672 69.6493L782.659 69.646L782.646 69.6427L781.42 74.49ZM771.88 50.91L772.179 45.9189L772.14 45.9166L772.101 45.9149L771.88 50.91ZM790.33 64.77L785.379 65.4696L786.105 70.6051L791.211 69.6919L790.33 64.77ZM812.47 60.81L813.351 65.7319L818.086 64.885L817.423 60.1208L812.47 60.81ZM766.21 90.24L767.497 85.4085L767.487 85.4058L767.477 85.4032L766.21 90.24ZM752.26 100.41L757.139 99.3157L756.116 94.7551L751.497 95.4686L752.26 100.41ZM730.12 103.83L729.357 98.8886L724.364 99.6599L725.187 104.645L730.12 103.83ZM773.05 139.7C786.281 139.7 797.53 136.566 805.586 130.255C813.79 123.828 818.19 114.479 818.19 103.29H808.19C808.19 111.631 805.031 117.987 799.419 122.383C793.66 126.894 784.839 129.7 773.05 129.7V139.7ZM818.19 103.29C818.19 94.6393 815.695 87.476 809.404 81.7759C803.442 76.3741 794.51 72.7116 782.672 69.6493L780.168 79.3307C791.64 82.2984 798.594 85.4759 802.689 89.1866C806.456 92.599 808.19 96.8207 808.19 103.29H818.19ZM782.646 69.6427C771.114 66.7253 765.086 64.8728 761.911 63.2239C760.414 62.4466 760.062 61.9624 760.006 61.8758C760.005 61.8748 759.87 61.7421 759.87 60.9H749.87C749.87 62.8929 750.208 65.1565 751.628 67.3352C752.991 69.4282 755.008 70.9072 757.302 72.0986C761.709 74.3872 768.957 76.4947 780.194 79.3373L782.646 69.6427ZM759.87 60.9C759.87 59.7293 760.367 58.6277 762.086 57.6222C763.975 56.5174 767.18 55.7069 771.659 55.9051L772.101 45.9149C766.411 45.6631 761.111 46.6076 757.037 48.9903C752.794 51.4723 749.87 55.5907 749.87 60.9H759.87ZM771.582 55.9011C776.176 56.1759 779.469 57.369 781.624 58.9781C783.683 60.5146 784.977 62.6198 785.379 65.4696L795.281 64.0704C794.514 58.6402 791.848 54.1304 787.606 50.9644C783.462 47.8709 778.115 46.2741 772.179 45.9189L771.582 55.9011ZM791.211 69.6919L813.351 65.7319L811.59 55.8881L789.45 59.8481L791.211 69.6919ZM817.423 60.1208C814.531 39.342 795.732 27.1 771.52 27.1V37.1C792.669 37.1 805.55 47.358 807.518 61.4992L817.423 60.1208ZM771.52 27.1C759.167 27.1 748.424 30.2203 740.649 36.2782C732.753 42.4293 728.27 51.3585 728.27 61.98H738.27C738.27 54.4215 741.347 48.4107 746.794 44.1668C752.361 39.8297 760.743 37.1 771.52 37.1V27.1ZM728.27 61.98C728.27 70.4572 730.854 77.4203 737.341 82.9781C743.438 88.2029 752.62 91.8483 764.943 95.0768L767.477 85.4032C755.41 82.2417 748.122 79.0471 743.847 75.3844C739.961 72.0547 738.27 68.0828 738.27 61.98H728.27ZM764.923 95.0715C776.144 98.0606 781.595 99.7707 784.349 101.336C785.547 102.018 785.724 102.403 785.742 102.437C785.797 102.544 785.96 102.919 785.96 104.28H795.96C795.96 102.356 795.775 100.065 794.621 97.8372C793.429 95.5373 791.536 93.9198 789.292 92.6435C785.16 90.2943 778.237 88.2694 767.497 85.4085L764.923 95.0715ZM785.96 104.28C785.96 106.293 785.21 107.669 783.744 108.717C782.08 109.907 779.136 110.89 774.58 110.89V120.89C780.374 120.89 785.62 119.668 789.559 116.853C793.695 113.896 795.96 109.467 795.96 104.28H785.96ZM774.58 110.89C764.451 110.89 758.668 106.133 757.139 99.3157L747.382 101.504C750.172 113.947 760.95 120.89 774.58 120.89V110.89ZM751.497 95.4686L729.357 98.8886L730.884 108.771L753.024 105.351L751.497 95.4686ZM725.187 104.645C727.007 115.666 732.397 124.591 740.87 130.682C749.261 136.714 760.29 139.7 773.05 139.7V129.7C761.781 129.7 752.965 127.061 746.708 122.563C740.534 118.124 736.473 111.614 735.053 103.015L725.187 104.645Z" fill="#C7BAE9"/>
</svg>
