<svg width="172" height="47" viewBox="0 0 172 47" fill="none" xmlns="http://www.w3.org/2000/svg">
<g clip-path="url(#clip0_2002_26)">
<path d="M161.664 0H157.561C157.557 2.73407 156.463 5.35494 154.521 7.28825C152.578 9.22227 149.944 10.3104 147.196 10.3138V14.3968C149.943 14.4012 152.576 15.4886 154.519 17.421C156.462 19.3534 157.556 21.9732 157.561 24.7065H161.664C161.669 21.9746 162.76 19.3556 164.7 17.4227C166.64 15.4898 169.271 14.4003 172.016 14.3928V10.3097C169.271 10.3008 166.641 9.21172 164.701 7.28008C162.762 5.34786 161.67 2.73057 161.664 0ZM159.613 17.3203C158.374 15.2808 156.651 13.5757 154.594 12.3553C156.651 11.1333 158.375 9.42689 159.613 7.38624C160.843 9.42703 162.561 11.1339 164.614 12.3553C162.563 13.5764 160.845 15.2816 159.613 17.3203Z" fill="#F00000"/>
<path d="M13.9507 39.9159C9.94329 39.9159 6.61837 38.6025 3.97594 35.9758C2.68177 34.6914 1.66231 33.1596 0.978991 31.4726C0.295674 29.7857 -0.0373496 27.9786 -1.25307e-05 26.1601C-1.25307e-05 22.273 1.31983 19.0148 3.95953 16.3853C6.59922 13.7558 9.92961 12.4302 13.9507 12.4084C16.2887 12.389 18.5912 12.9773 20.6306 14.1151C22.6115 15.1958 24.2586 16.7939 25.3944 18.7371L21.5867 20.9338C20.8746 19.6175 19.798 18.532 18.4847 17.8062C17.1012 17.0323 15.5377 16.6338 13.9507 16.6507C11.1332 16.6507 8.82313 17.5476 7.02048 19.3414C5.2698 21.1107 4.39446 23.3836 4.39446 26.1601C4.39446 28.9366 5.2698 31.2108 7.02048 32.9829C8.81219 34.7767 11.1223 35.6723 13.9507 35.6695C15.5485 35.6896 17.1234 35.2911 18.5175 34.514C19.8359 33.8021 20.9104 32.7144 21.6031 31.3905L25.4108 33.5504C24.2808 35.5061 22.6349 37.1172 20.6511 38.2092C18.6077 39.3555 16.2963 39.9443 13.9507 39.9159ZM46.579 31.6926H31.4096C31.6535 33.0145 32.3964 34.1934 33.4858 34.9877C34.6616 35.8019 36.0712 36.2145 37.5028 36.1636C39.6583 36.1636 41.2996 35.381 42.4266 33.8158L45.8158 35.7839C43.9529 38.5358 41.1683 39.9132 37.4618 39.9159C34.3926 39.9159 31.8924 38.9809 29.9612 37.1109C29.0163 36.1756 28.274 35.0576 27.78 33.8259C27.286 32.5942 27.0509 31.2748 27.089 29.9492C27.0598 28.6395 27.2957 27.3373 27.7828 26.1203C28.2699 24.9032 28.9982 23.7962 29.9243 22.8651C31.7789 20.9461 34.1902 19.9933 37.1581 20.007C38.444 19.9725 39.7221 20.2152 40.9048 20.7184C42.0876 21.2216 43.147 21.9734 44.0104 22.9223C45.8029 24.8441 46.7727 27.385 46.7144 30.0063C46.7062 30.5714 46.6555 31.1351 46.5625 31.6926H46.579ZM31.3973 28.3568H42.5907C42.3875 27.0165 41.7093 25.7928 40.6786 24.9066C39.6798 24.0853 38.4166 23.6503 37.1212 23.6817C35.7429 23.6332 34.3925 24.0763 33.3135 24.9311C32.2747 25.8045 31.5859 27.0203 31.3727 28.3568H31.3973ZM60.5338 20.007C61.7936 19.9981 63.0413 20.253 64.1956 20.7553C65.35 21.2575 66.3853 21.9959 67.2342 22.9223C68.1437 23.8549 68.8577 24.9583 69.3346 26.1682C69.8115 27.3781 70.0418 28.6703 70.012 29.9696C70.0453 31.2748 69.8168 32.5736 69.3399 33.79C68.8629 35.0063 68.1471 36.1158 67.2342 37.0537C66.3837 37.9758 65.3473 38.7091 64.1928 39.2058C63.0383 39.7025 61.7915 39.9514 60.5338 39.9363C57.6643 39.9363 55.4431 38.8747 53.8702 36.7515V47.0204H49.7671V20.4806H53.8702V23.2081C55.4185 21.0604 57.6397 19.9933 60.5338 20.007ZM55.5854 34.2976C56.7477 35.3971 58.29 36.0102 59.8937 36.0102C61.4973 36.0102 63.0397 35.3971 64.202 34.2976C64.7669 33.7232 65.2095 33.0413 65.5035 32.2928C65.7975 31.5442 65.9368 30.7444 65.913 29.941C65.9384 29.143 65.7998 28.3482 65.5055 27.6054C65.2113 26.8625 64.7677 26.1873 64.202 25.6211C63.0515 24.499 61.5047 23.8704 59.8937 23.8704C58.2827 23.8704 56.7359 24.499 55.5854 25.6211C55.0183 26.1866 54.5736 26.8615 54.2786 27.6045C53.9836 28.3474 53.8446 29.1426 53.8702 29.941C53.851 30.7442 53.9927 31.5431 54.2872 32.2911C54.5817 33.0391 55.023 33.7212 55.5854 34.2976ZM83.1914 20.007C85.3989 20.007 87.1687 20.7079 88.5008 22.1097C89.833 23.5116 90.4991 25.417 90.4991 27.826V39.4219H86.3959V28.2057C86.3959 26.793 86.0157 25.7042 85.2552 24.9393C84.8386 24.5503 84.3472 24.2491 83.8106 24.0541C83.274 23.859 82.7033 23.774 82.1328 23.8042C81.4775 23.7702 80.8224 23.8761 80.2117 24.1149C79.6009 24.3536 79.0486 24.7196 78.5917 25.1883C77.7301 26.1111 77.2979 27.4721 77.2951 29.2714V39.4219H73.192V12.9024H77.2951V22.9018C78.5589 20.9583 80.5243 19.9933 83.1914 20.007ZM112.808 31.7131H97.655C97.8975 33.0344 98.6388 34.2134 99.7271 35.0081C100.903 35.8213 102.313 36.2338 103.744 36.184C105.902 36.184 107.544 35.4014 108.668 33.8362L112.057 35.8043C110.202 38.5563 107.423 39.9336 103.719 39.9363C100.645 39.9363 98.1446 39.0013 96.2189 37.1313C95.274 36.196 94.5317 35.078 94.0377 33.8463C93.5437 32.6146 93.3085 31.2952 93.3467 29.9696C93.3131 28.6574 93.5457 27.3519 94.0308 26.1311C94.5158 24.9104 95.2433 23.7996 96.1696 22.8651C98.0188 20.9461 100.43 19.9933 103.403 20.007C104.689 19.9725 105.967 20.2152 107.15 20.7184C108.333 21.2216 109.392 21.9734 110.256 22.9223C112.048 24.8441 113.018 27.385 112.96 30.0063C112.952 30.5714 112.901 31.1351 112.808 31.6926V31.7131ZM97.6262 28.3772H108.82C108.628 27.0312 107.955 25.7991 106.924 24.9066C105.924 24.0847 104.659 23.6497 103.362 23.6817C101.985 23.6331 100.636 24.0763 99.5588 24.9311C98.5188 25.8041 97.8286 27.0198 97.6139 28.3568L97.6262 28.3772ZM128.892 30.6229V20.4806H132.995V39.4219H128.892V36.9965C127.62 38.9401 125.654 39.9132 122.992 39.9159C120.782 39.9159 119.011 39.215 117.678 37.8131C116.346 36.4113 115.68 34.5059 115.68 32.0969V20.4806H119.783V31.6926C119.783 33.1095 120.165 34.1915 120.924 34.9591C121.34 35.3489 121.831 35.6505 122.368 35.8456C122.905 36.0408 123.476 36.1253 124.046 36.0942C124.705 36.1309 125.365 36.0259 125.979 35.7863C126.594 35.5468 127.149 35.1783 127.608 34.7059C128.461 33.7832 128.89 32.4222 128.892 30.6229ZM140.828 25.7232C140.836 26.0205 140.926 26.31 141.087 26.5604C141.248 26.8108 141.475 27.0126 141.743 27.1441C142.591 27.6012 143.494 27.9471 144.431 28.1731C145.216 28.3473 145.991 28.5627 146.753 28.8182C147.483 29.081 148.185 29.4175 148.846 29.8226C149.559 30.2403 150.145 30.8429 150.54 31.5661C150.948 32.3414 151.138 33.2117 151.09 34.0853C151.122 34.9228 150.942 35.7548 150.568 36.5052C150.193 37.2556 149.635 37.9005 148.944 38.3807C147.396 39.4559 145.538 40.0018 143.651 39.9363C141.963 39.9837 140.293 39.5775 138.818 38.7604C137.51 38.0171 136.48 36.8707 135.884 35.494L139.425 33.4524C140.06 35.268 141.468 36.1772 143.651 36.1799C145.834 36.1826 146.913 35.4749 146.889 34.0567C146.889 33.0224 145.682 32.2139 143.27 31.6314C142.49 31.4461 141.722 31.2185 140.968 30.9495C140.257 30.6812 139.57 30.3519 138.916 29.9655C138.197 29.5673 137.603 28.9778 137.201 28.2629C136.8 27.5103 136.61 26.664 136.651 25.8131C136.626 25.0068 136.792 24.206 137.136 23.4754C137.479 22.7448 137.991 22.1049 138.629 21.6075C140.054 20.5187 141.814 19.9533 143.61 20.007C145.08 19.9812 146.53 20.3402 147.816 21.0481C149.024 21.7201 150.009 22.7274 150.651 23.9471L147.188 25.8784C146.554 24.4275 145.361 23.6953 143.61 23.6817C142.906 23.653 142.209 23.8381 141.612 24.2125C141.359 24.3733 141.154 24.5977 141.016 24.863C140.878 25.1283 140.814 25.425 140.828 25.7232Z" fill="white"/>
</g>
<defs>
<clipPath id="clip0_2002_26">
<rect width="172" height="47" fill="white"/>
</clipPath>
</defs>
</svg>
