<svg width="159" height="40" viewBox="0 0 159 40" fill="none" xmlns="http://www.w3.org/2000/svg">
<g clip-path="url(#clip0_2002_28)">
<path d="M149.445 0H145.652C145.648 2.32687 144.638 4.5574 142.842 6.20276C141.046 7.84874 138.611 8.77481 136.071 8.77769V12.2526C138.61 12.2563 141.044 13.1818 142.84 14.8264C144.636 16.471 145.647 18.7006 145.652 21.0268H149.445C149.449 18.7018 150.459 16.4729 152.252 14.8278C154.046 13.1828 156.477 12.2556 159.015 12.2492V8.77422C156.478 8.76667 154.046 7.83976 152.252 6.19581C150.46 4.55137 149.451 2.32389 149.445 0ZM147.549 14.7407C146.404 13.005 144.811 11.5538 142.91 10.5152C144.811 9.47518 146.404 8.02289 147.549 6.28616C148.687 8.023 150.275 9.47565 152.173 10.5152C150.276 11.5544 148.688 13.0056 147.549 14.7407Z" fill="#F00000"/>
<path d="M12.8963 33.971C9.19176 33.971 6.11814 32.8532 3.67543 30.6177C2.47907 29.5246 1.53666 28.2209 0.904992 26.7852C0.273322 25.3495 -0.0345313 23.8115 -1.62856e-05 22.2639C-1.62856e-05 18.9558 1.22007 16.1828 3.66026 13.9449C6.10044 11.7071 9.17911 10.5789 12.8963 10.5603C15.0576 10.5438 17.1861 11.0445 19.0713 12.0129C20.9025 12.9326 22.4251 14.2927 23.475 15.9465L19.9551 17.816C19.2968 16.6957 18.3016 15.7719 17.0876 15.1542C15.8087 14.4956 14.3633 14.1565 12.8963 14.1708C10.2917 14.1708 8.15626 14.9341 6.48986 16.4608C4.8715 17.9666 4.06232 19.901 4.06232 22.2639C4.06232 24.6269 4.8715 26.5624 6.48986 28.0705C8.14614 29.5972 10.2816 30.3594 12.8963 30.357C14.3733 30.3741 15.8292 30.035 17.1179 29.3736C18.3366 28.7678 19.3299 27.8421 19.9703 26.7153L23.4902 28.5536C22.4456 30.218 20.9241 31.5891 19.0903 32.5185C17.2013 33.494 15.0646 33.9951 12.8963 33.971ZM43.0584 26.9725H29.0356C29.2611 28.0974 29.9478 29.1008 30.9549 29.7767C32.0418 30.4697 33.3449 30.8209 34.6683 30.7775C36.6609 30.7775 38.1781 30.1115 39.2199 28.7794L42.3529 30.4543C40.6309 32.7965 38.0567 33.9687 34.6303 33.971C31.7932 33.971 29.4819 33.1752 27.6967 31.5837C26.8232 30.7877 26.137 29.8363 25.6804 28.788C25.2237 27.7397 25.0063 26.6169 25.0416 25.4887C25.0145 24.374 25.2327 23.2658 25.683 22.23C26.1333 21.1942 26.8065 20.2521 27.6625 19.4596C29.377 17.8264 31.606 17.0156 34.3497 17.0272C35.5383 16.9979 36.7198 17.2044 37.8132 17.6327C38.9066 18.061 39.8859 18.7008 40.684 19.5083C42.341 21.1439 43.2376 23.3064 43.1836 25.5373C43.1761 26.0182 43.1292 26.498 43.0433 26.9725H43.0584ZM29.0242 24.1334H39.3716C39.1838 22.9928 38.5568 21.9513 37.6041 21.1971C36.6807 20.4981 35.513 20.1279 34.3155 20.1546C33.0414 20.1134 31.793 20.4905 30.7956 21.218C29.8353 21.9613 29.1986 22.996 29.0015 24.1334H29.0242ZM55.9585 17.0272C57.1232 17.0196 58.2765 17.2366 59.3436 17.6641C60.4108 18.0915 61.3678 18.7199 62.1525 19.5083C62.9933 20.3021 63.6533 21.2411 64.0942 22.2708C64.535 23.3005 64.7479 24.4003 64.7204 25.506C64.7512 26.6169 64.54 27.7222 64.0991 28.7574C63.6582 29.7926 62.9964 30.7369 62.1525 31.5351C61.3663 32.3198 60.4083 32.9439 59.341 33.3666C58.2737 33.7893 57.1212 34.0012 55.9585 33.9884C53.3059 33.9884 51.2526 33.0849 49.7987 31.2779V40.0174H46.0056V17.4303H49.7987V19.7515C51.2299 17.9237 53.2832 17.0156 55.9585 17.0272ZM51.3841 29.1895C52.4586 30.1252 53.8844 30.647 55.3668 30.647C56.8493 30.647 58.2751 30.1252 59.3495 29.1895C59.8717 28.7006 60.2809 28.1203 60.5526 27.4832C60.8244 26.8461 60.9532 26.1654 60.9312 25.4817C60.9547 24.8025 60.8265 24.1261 60.5545 23.4939C60.2825 22.8617 59.8725 22.2871 59.3495 21.8052C58.286 20.8502 56.8561 20.3152 55.3668 20.3152C53.8776 20.3152 52.4477 20.8502 51.3841 21.8052C50.8599 22.2864 50.4488 22.8609 50.1761 23.4932C49.9035 24.1255 49.775 24.8022 49.7987 25.4817C49.7808 26.1652 49.9119 26.8452 50.1841 27.4818C50.4563 28.1184 50.8643 28.6989 51.3841 29.1895ZM76.9036 17.0272C78.9443 17.0272 80.5803 17.6237 81.8118 18.8168C83.0433 20.0098 83.659 21.6315 83.659 23.6817V33.5505H79.866V24.0049C79.866 22.8025 79.5145 21.8759 78.8115 21.2249C78.4264 20.8938 77.9721 20.6376 77.4761 20.4715C76.98 20.3055 76.4524 20.2332 75.925 20.2589C75.3193 20.23 74.7138 20.3201 74.1492 20.5233C73.5846 20.7265 73.074 21.038 72.6516 21.4369C71.8551 22.2222 71.4556 23.3805 71.4531 24.9118V33.5505H67.66V10.9808H71.4531V19.4909C72.6213 17.8369 74.4382 17.0156 76.9036 17.0272ZM104.282 26.9898H90.2741C90.4982 28.1144 91.1836 29.1178 92.1895 29.7941C93.277 30.4862 94.5797 30.8372 95.9029 30.7949C97.8981 30.7949 99.4153 30.1289 100.455 28.7968L103.588 30.4717C101.873 32.8138 99.304 33.986 95.8802 33.9884C93.0379 33.9884 90.7267 33.1926 88.9465 31.6011C88.073 30.8051 87.3868 29.8537 86.9302 28.8054C86.4735 27.7571 86.2561 26.6342 86.2914 25.506C86.2603 24.3892 86.4754 23.2782 86.9238 22.2393C87.3722 21.2004 88.0446 20.255 88.901 19.4596C90.6104 17.8264 92.8394 17.0156 95.5881 17.0272C96.7768 16.9979 97.9583 17.2044 99.0516 17.6327C100.145 18.061 101.124 18.7008 101.922 19.5083C103.579 21.1439 104.476 23.3064 104.422 25.5373C104.415 26.0182 104.368 26.498 104.282 26.9725V26.9898ZM90.2475 24.1508H100.595C100.417 23.0053 99.7952 21.9567 98.8425 21.1971C97.918 20.4976 96.7489 20.1274 95.5502 20.1546C94.2772 20.1133 93.03 20.4904 92.034 21.218C91.0726 21.9609 90.4345 22.9956 90.2361 24.1334L90.2475 24.1508ZM119.15 26.062V17.4303H122.943V33.5505H119.15V31.4864C117.975 33.1405 116.156 33.9687 113.696 33.971C111.653 33.971 110.016 33.3745 108.784 32.1814C107.553 30.9883 106.937 29.3667 106.937 27.3165V17.4303H110.73V26.9725C110.73 28.1783 111.083 29.0991 111.784 29.7524C112.169 30.0842 112.623 30.3409 113.119 30.5069C113.616 30.673 114.143 30.7449 114.671 30.7184C115.28 30.7497 115.889 30.6603 116.458 30.4564C117.026 30.2526 117.539 29.939 117.963 29.537C118.752 28.7516 119.148 27.5933 119.15 26.062ZM130.184 21.8921C130.192 22.1451 130.274 22.3915 130.424 22.6046C130.573 22.8177 130.782 22.9895 131.03 23.1014C131.814 23.4904 132.649 23.7847 133.515 23.9771C134.24 24.1254 134.957 24.3086 135.661 24.5261C136.336 24.7498 136.985 25.0362 137.596 25.3809C138.255 25.7364 138.797 26.2492 139.162 26.8647C139.539 27.5246 139.715 28.2652 139.671 29.0088C139.7 29.7215 139.534 30.4296 139.187 31.0682C138.841 31.7069 138.325 32.2557 137.687 32.6644C136.255 33.5795 134.538 34.0441 132.794 33.9884C131.233 34.0287 129.69 33.683 128.326 32.9876C127.116 32.355 126.165 31.3793 125.614 30.2076L128.887 28.4702C129.474 30.0153 130.776 30.7891 132.794 30.7914C134.812 30.7937 135.809 30.1914 135.787 28.9844C135.787 28.1041 134.671 27.4161 132.441 26.9203C131.721 26.7626 131.01 26.5689 130.313 26.34C129.656 26.1116 129.021 25.8314 128.417 25.5026C127.752 25.1637 127.203 24.662 126.831 24.0535C126.46 23.4131 126.285 22.6928 126.323 21.9686C126.3 21.2824 126.453 20.6009 126.771 19.9791C127.088 19.3573 127.561 18.8127 128.151 18.3894C129.469 17.4627 131.096 16.9815 132.756 17.0272C134.114 17.0052 135.455 17.3108 136.644 17.9133C137.76 18.4852 138.671 19.3424 139.265 20.3805L136.064 22.0241C135.477 20.7894 134.374 20.1662 132.756 20.1546C132.105 20.1302 131.46 20.2877 130.909 20.6064C130.675 20.7432 130.485 20.9342 130.358 21.16C130.231 21.3858 130.171 21.6383 130.184 21.8921Z" fill="#030F4C"/>
</g>
<defs>
<clipPath id="clip0_2002_28">
<rect width="159" height="40" fill="white"/>
</clipPath>
</defs>
</svg>
