<svg width="48" height="48" viewBox="0 0 48 48" fill="none" xmlns="http://www.w3.org/2000/svg">
<path d="M35 8H13C10.24 8 8 10.24 8 13V35C8 37.76 10.24 40 13 40H35C37.76 40 40 37.76 40 35V13C40 10.24 37.76 8 35 8ZM33.03 17.63L34.76 16.63C35.24 16.35 35.85 16.52 36.13 17C36.41 17.48 36.24 18.09 35.76 18.37L34.03 19.37C33.87 19.46 33.7 19.5 33.53 19.5C33.18 19.5 32.85 19.32 32.66 19C32.38 18.52 32.55 17.91 33.03 17.63ZM23 11C23 10.45 23.45 10 24 10C24.55 10 25 10.45 25 11V13C25 13.55 24.55 14 24 14C23.45 14 23 13.55 23 13V11ZM10 24C10 23.45 10.45 23 11 23H13C13.55 23 14 23.45 14 24C14 24.55 13.55 25 13 25H11C10.45 25 10 24.55 10 24ZM14.97 30.37L13.24 31.37C13.08 31.46 12.91 31.5 12.74 31.5C12.39 31.5 12.06 31.32 11.87 31C11.59 30.52 11.76 29.91 12.24 29.63L13.97 28.63C14.45 28.35 15.06 28.52 15.34 29C15.62 29.48 15.45 30.09 14.97 30.37ZM15.34 19C15.15 19.32 14.82 19.5 14.47 19.5C14.3 19.5 14.13 19.46 13.97 19.37L12.24 18.37C11.76 18.09 11.6 17.48 11.88 17C12.16 16.52 12.77 16.36 13.25 16.63L14.98 17.63C15.45 17.91 15.62 18.52 15.34 19ZM19.37 34.03L18.37 35.76C18.18 36.08 17.85 36.26 17.5 36.26C17.33 36.26 17.16 36.22 17 36.13C16.52 35.85 16.36 35.24 16.63 34.76L17.63 33.03C17.91 32.55 18.52 32.39 19 32.66C19.48 32.94 19.64 33.55 19.37 34.03ZM19 15.34C18.84 15.43 18.67 15.47 18.5 15.47C18.15 15.47 17.82 15.29 17.63 14.97L16.63 13.24C16.36 12.76 16.52 12.15 17 11.88C17.48 11.6 18.09 11.77 18.37 12.25L19.37 13.98C19.64 14.45 19.48 15.06 19 15.34ZM25 37C25 37.55 24.55 38 24 38C23.45 38 23 37.55 23 37V35C23 34.45 23.45 34 24 34C24.55 34 25 34.45 25 35V37ZM26.49 28.31C26.33 28.4 26.16 28.44 25.99 28.44C25.64 28.44 25.31 28.26 25.12 27.94L23.13 24.49C23.05 24.35 23 24.18 23 24V18C23 17.45 23.45 17 24 17C24.55 17 25 17.45 25 18V23.73L26.86 26.94C27.13 27.43 26.97 28.04 26.49 28.31ZM31 36.13C30.84 36.22 30.67 36.26 30.5 36.26C30.15 36.26 29.82 36.08 29.63 35.76L28.63 34.03C28.35 33.55 28.52 32.94 29 32.66C29.48 32.38 30.09 32.55 30.37 33.03L31.37 34.76C31.64 35.24 31.48 35.85 31 36.13ZM31.37 13.24L30.37 14.97C30.18 15.29 29.85 15.47 29.5 15.47C29.33 15.47 29.16 15.43 29 15.34C28.52 15.06 28.36 14.45 28.63 13.97L29.63 12.24C29.91 11.76 30.52 11.6 31 11.88C31.48 12.15 31.64 12.76 31.37 13.24ZM36.13 31C35.94 31.32 35.61 31.5 35.26 31.5C35.09 31.5 34.92 31.46 34.76 31.37L33.03 30.37C32.55 30.09 32.39 29.48 32.66 29C32.94 28.52 33.55 28.36 34.03 28.63L35.76 29.63C36.24 29.91 36.4 30.52 36.13 31ZM37 25H35C34.45 25 34 24.55 34 24C34 23.45 34.45 23 35 23H37C37.55 23 38 23.45 38 24C38 24.55 37.55 25 37 25Z" fill="#F00000"/>
</svg>
