<svg width="48" height="48" viewBox="0 0 48 48" fill="none" xmlns="http://www.w3.org/2000/svg">
<path d="M25 12.13C26.72 12.57 28 14.14 28 16C28 17.86 26.72 19.43 25 19.87V23H29C29.55 23 30 23.45 30 24C30 25.1 30.9 26 32 26C33.1 26 34 25.1 34 24C34 23.45 34.45 23 35 23H39V12C39 10.35 37.65 9 36 9H25V12.13Z" fill="#F00000"/>
<path d="M12.13 23C12.57 21.28 14.14 20 16 20C17.86 20 19.43 21.28 19.87 23H23V19C23 18.45 23.45 18 24 18C25.1 18 26 17.1 26 16C26 14.9 25.1 14 24 14C23.45 14 23 13.55 23 13V9H12C10.35 9 9 10.35 9 12V23H12.13Z" fill="#F00000"/>
<path d="M35.87 25C35.43 26.72 33.86 28 32 28C30.14 28 28.57 26.72 28.13 25H25V29C25 29.55 24.55 30 24 30C22.9 30 22 30.9 22 32C22 33.1 22.9 34 24 34C24.55 34 25 34.45 25 35V39H36C37.65 39 39 37.65 39 36V25H35.87Z" fill="#F00000"/>
<path d="M23 35.87C21.28 35.43 20 33.86 20 32C20 30.14 21.28 28.57 23 28.13V25H19C18.45 25 18 24.55 18 24C18 22.9 17.1 22 16 22C14.9 22 14 22.9 14 24C14 24.55 13.55 25 13 25H9V36C9 37.65 10.35 39 12 39H23V35.87Z" fill="#F00000"/>
</svg>
