<svg width="73" height="73" viewBox="0 0 73 73" fill="none" xmlns="http://www.w3.org/2000/svg">
<path d="M36.0918 0C16.1858 0 0 16.1858 0 36.0918C0 55.9978 16.1858 72.1836 36.0918 72.1836C55.9978 72.1836 72.1836 55.9978 72.1836 36.0918C72.1836 16.1858 55.9978 0 36.0918 0ZM37.7576 27.7629C39.2845 27.7629 40.5339 29.0123 40.5339 30.5392C40.5339 32.0662 39.2845 33.3155 37.7576 33.3155H24.1815C23.9872 34.2039 23.8761 35.1479 23.8761 36.0918C23.8761 37.0357 23.9872 37.9797 24.1815 38.8681H34.9813C36.5082 38.8681 37.7576 40.1174 37.7576 41.6444C37.7576 43.1713 36.5082 44.4207 34.9813 44.4207H26.8745C29.5398 47.78 33.7042 49.9733 38.4517 49.9733C41.6999 49.9733 44.7261 49.0016 47.2247 47.1414C48.4463 46.2253 50.1954 46.5029 51.1115 47.7245C52.0277 48.946 51.7779 50.6951 50.5285 51.6113C47.0582 54.1655 42.8937 55.5258 38.4517 55.5258C30.4282 55.5258 23.543 50.9727 20.2947 44.4207H15.5472C14.0203 44.4207 12.7709 43.1713 12.7709 41.6444C12.7709 40.1174 14.0203 38.8681 15.5472 38.8681H18.5456C18.4068 37.9519 18.3235 37.0357 18.3235 36.0918C18.3235 35.1479 18.4068 34.2317 18.5456 33.3155H15.5472C14.0203 33.3155 12.7709 32.0662 12.7709 30.5392C12.7709 29.0123 14.0203 27.7629 15.5472 27.7629H20.2947C23.543 21.2109 30.4559 16.6578 38.4517 16.6578C42.8937 16.6578 47.0582 18.0181 50.5008 20.5723C51.7223 21.4885 52 23.2098 51.0838 24.4591C50.1676 25.6807 48.4463 25.9583 47.197 25.0422C44.6983 23.2098 41.6722 22.2103 38.4239 22.2103C33.6764 22.2103 29.512 24.4036 26.8467 27.7629H37.7576Z" fill="white"/>
</svg>
