<svg width="73" height="73" viewBox="0 0 73 73" fill="none" xmlns="http://www.w3.org/2000/svg">
<path d="M36.5908 0C16.6848 0 0.499023 16.1858 0.499023 36.0918C0.499023 55.9978 16.6848 72.1836 36.5908 72.1836C56.4968 72.1836 72.6826 55.9978 72.6826 36.0918C72.6826 16.1858 56.4968 0 36.5908 0ZM49.6672 21.4052L39.3671 31.6775V36.0918H44.9197C46.4467 36.0918 47.696 37.3411 47.696 38.8681C47.696 40.3951 46.4467 41.6444 44.9197 41.6444H39.3671V44.4207H44.9197C46.4467 44.4207 47.696 45.67 47.696 47.197C47.696 48.7239 46.4467 49.9733 44.9197 49.9733H39.3671V55.5258C39.3671 57.0528 38.1178 58.3021 36.5908 58.3021C35.0639 58.3021 33.8145 57.0528 33.8145 55.5258V49.9733H28.2619C26.735 49.9733 25.4857 48.7239 25.4857 47.197C25.4857 45.67 26.735 44.4207 28.2619 44.4207H33.8145V41.6444H28.2619C26.735 41.6444 25.4857 40.3951 25.4857 38.8681C25.4857 37.3411 26.735 36.0918 28.2619 36.0918H33.8145V31.6775L23.5145 21.3775C22.4317 20.2947 22.4317 18.5456 23.5145 17.4629C24.5972 16.3801 26.3463 16.3801 27.4291 17.4629L36.5908 26.6246L45.7248 17.4906C46.8076 16.4079 48.5566 16.4079 49.6394 17.4906C50.7222 18.5734 50.7499 20.3225 49.6672 21.4052Z" fill="white"/>
</svg>
