<svg width="73" height="73" viewBox="0 0 73 73" fill="none" xmlns="http://www.w3.org/2000/svg">
<path d="M36.0918 0C16.1858 0 0 16.1858 0 36.0918C0 55.9978 16.1858 72.1836 36.0918 72.1836C55.9978 72.1836 72.1836 55.9978 72.1836 36.0918C72.1836 16.1858 55.9978 0 36.0918 0ZM53.8323 47.891C52.3053 50.8894 49.2514 52.7496 45.8644 52.7496H44.4762C41.9498 52.7496 39.4789 52.2776 37.119 51.3614C34.1762 50.1954 30.8724 50.0288 27.8462 50.8894L21.5996 52.6385C21.3219 52.7218 21.0721 52.7496 20.8222 52.7496C19.7672 52.7496 18.7677 52.1388 18.3235 51.1671C17.7405 49.9455 18.1292 48.4741 19.2397 47.6967C23.2931 44.8649 25.9861 40.6727 27.0133 36.0918H24.9866C23.4597 36.0918 22.2103 34.8425 22.2103 33.3155C22.2103 31.7885 23.4597 30.5392 24.9866 30.5392H27.4298C27.3742 29.7341 27.291 28.9567 27.1244 28.1516L27.0133 27.7074C26.347 24.3203 27.2077 20.85 29.3732 18.1847C31.5942 15.4639 34.9258 13.8815 38.4794 13.8815C45.3369 13.8815 50.7229 19.1564 50.7229 25.6807C50.7229 27.2077 49.4735 28.457 47.9466 28.457C46.4196 28.457 45.1703 27.2077 45.1703 25.6807C45.1703 22.2381 42.2829 19.434 38.7293 19.434C36.5915 19.434 34.8425 20.2669 33.6764 21.6828C32.5381 23.071 32.0939 24.8478 32.4549 26.5691L32.5381 27.0133C32.788 28.1794 32.8991 29.3454 32.9546 30.5115H38.8681C40.3951 30.5115 41.6444 31.7608 41.6444 33.2877C41.6444 34.8147 40.3951 36.064 38.8681 36.064H32.677C32.1217 39.2012 31.0112 42.1996 29.3176 44.9204C32.6214 44.5317 36.0363 44.9482 39.1457 46.1697C40.8393 46.836 42.6439 47.1692 44.4762 47.1692H45.8644C47.1414 47.1692 48.3075 46.4751 48.8905 45.3646C49.5846 44.0042 51.2504 43.449 52.6107 44.143C53.9989 44.8649 54.5264 46.5307 53.8323 47.891Z" fill="white"/>
</svg>
