<svg width="73" height="73" viewBox="0 0 73 73" fill="none" xmlns="http://www.w3.org/2000/svg">
<path d="M36.0918 72.1836C55.9978 72.1836 72.1836 55.9978 72.1836 36.0918C72.1836 16.1858 55.9978 0 36.0918 0C16.1858 0 0 16.1858 0 36.0918C0 55.9978 16.1858 72.1836 36.0918 72.1836ZM33.3155 16.6578V13.8815C33.3155 12.3545 34.5648 11.1052 36.0918 11.1052C37.6188 11.1052 38.8681 12.3545 38.8681 13.8815V16.6578H44.4207C45.9476 16.6578 47.197 17.9071 47.197 19.434C47.197 20.961 45.9476 22.2103 44.4207 22.2103H38.8681V33.3155C45.0037 33.3155 49.9733 38.2851 49.9733 44.4207C49.9733 50.5563 45.0037 55.5258 38.8681 55.5258V58.3021C38.8681 59.8291 37.6188 61.0784 36.0918 61.0784C34.5648 61.0784 33.3155 59.8291 33.3155 58.3021V55.5258H27.7629C26.236 55.5258 24.9866 54.2765 24.9866 52.7496C24.9866 51.2226 26.236 49.9733 27.7629 49.9733H33.3155V38.8681C27.1799 38.8681 22.2103 33.8985 22.2103 27.7629C22.2103 21.6273 27.1799 16.6578 33.3155 16.6578Z" fill="white"/>
</svg>
