<svg width="1388" height="489" viewBox="0 0 1388 489" fill="none" xmlns="http://www.w3.org/2000/svg">
<path opacity="0.5" d="M21.5 252H18.5V255H21.5V252ZM65.95 252V255H68.95V252H65.95ZM65.95 101.5L68.6482 100.189L62.95 101.5H65.95ZM139.1 252L136.402 253.311L137.223 255H139.1V252ZM155.9 252V255H157.777L158.598 253.311L155.9 252ZM229.05 101.5H232.05L226.352 100.189L229.05 101.5ZM229.05 252H226.05V255H229.05V252ZM273.5 252V255H276.5V252H273.5ZM273.5 -1.00136e-05H276.5V-3.00001H273.5V-1.00136e-05ZM230.8 -1.00136e-05V-3.00001H228.942L228.114 -1.33715L230.8 -1.00136e-05ZM147.5 167.3L144.814 168.637L147.5 174.031L150.186 168.637L147.5 167.3ZM64.2 -1.00136e-05L66.8855 -1.33715L66.0576 -3.00001H64.2V-1.00136e-05ZM21.5 -1.00136e-05V-3.00001H18.5V-1.00136e-05H21.5ZM21.5 255H65.95V249H21.5V255ZM68.95 252V101.5H62.95V252H68.95ZM63.2518 102.811L136.402 253.311L141.798 250.689L68.6482 100.189L63.2518 102.811ZM139.1 255H155.9V249H139.1V255ZM158.598 253.311L231.748 102.811L226.352 100.189L153.202 250.689L158.598 253.311ZM226.05 101.5V252H232.05V101.5H226.05ZM229.05 255H273.5V249H229.05V255ZM276.5 252V-1.00136e-05H270.5V252H276.5ZM273.5 -3.00001H230.8V2.99999H273.5V-3.00001ZM228.114 -1.33715L144.814 165.963L150.186 168.637L233.486 1.33713L228.114 -1.33715ZM150.186 165.963L66.8855 -1.33715L61.5145 1.33713L144.814 168.637L150.186 165.963ZM64.2 -3.00001H21.5V2.99999H64.2V-3.00001ZM18.5 -1.00136e-05V252H24.5V-1.00136e-05H18.5ZM407.673 260.25C436.773 260.25 461.552 249.726 479.049 231.503C496.538 213.289 506.573 187.576 506.573 157.5H500.573C500.573 186.224 491.008 210.386 474.722 227.347C458.444 244.299 435.273 254.25 407.673 254.25V260.25ZM506.573 157.5C506.573 127.603 496.628 101.892 479.186 83.6339C461.732 65.3643 436.952 54.75 407.673 54.75V60.75C435.444 60.75 458.614 70.7857 474.848 87.7786C491.093 104.783 500.573 128.947 500.573 157.5H506.573ZM407.673 54.75C378.922 54.75 354.233 65.1873 336.737 83.3632C319.248 101.532 309.123 127.246 309.123 157.5H315.123C315.123 128.604 324.773 104.443 341.059 87.5243C357.338 70.6126 380.424 60.75 407.673 60.75V54.75ZM309.123 157.5C309.123 187.389 318.975 213.1 336.33 231.36C353.697 249.635 378.393 260.25 407.673 260.25V254.25C379.903 254.25 356.824 244.215 340.679 227.227C324.521 210.225 315.123 186.061 315.123 157.5H309.123ZM365.523 157.5C365.523 141.411 368.956 128.325 375.804 119.33C382.553 110.464 392.899 105.2 407.673 105.2V99.2C391.297 99.2 379.069 105.136 371.03 115.695C363.09 126.125 359.523 140.689 359.523 157.5H365.523ZM407.673 105.2C421.93 105.2 432.387 110.298 439.358 119.111C446.41 128.028 450.173 141.106 450.173 157.5H456.173C456.173 140.294 452.236 125.722 444.064 115.389C435.809 104.952 423.516 99.2 407.673 99.2V105.2ZM450.173 157.5C450.173 173.364 446.499 186.458 439.471 195.517C432.527 204.469 422.067 209.8 407.673 209.8V215.8C423.729 215.8 436.019 209.756 444.212 199.195C452.322 188.742 456.173 174.186 456.173 157.5H450.173ZM407.673 209.8C393.586 209.8 383.22 204.787 376.296 196.022C369.289 187.151 365.523 174.075 365.523 157.5H359.523C359.523 174.875 363.457 189.449 371.588 199.741C379.801 210.138 392.01 215.8 407.673 215.8V209.8ZM670.857 252H667.857V255H670.857V252ZM719.157 252V255H722.157V252H719.157ZM584.057 82.425H581.057V90.2652L586.29 84.4276L584.057 82.425ZM584.057 63H587.057V60H584.057V63ZM541.707 63V60H538.707V63H541.707ZM541.707 252H538.707V255H541.707V252ZM590.007 252V255H593.007V252H590.007ZM667.857 162.75V252H673.857V162.75H667.857ZM670.857 255H719.157V249H670.857V255ZM722.157 252V145.95H716.157V252H722.157ZM722.157 145.95C722.157 138.075 722.183 115.341 712.653 94.5202C707.865 84.0583 700.625 73.987 689.69 66.5413C678.739 59.085 664.284 54.4 645.307 54.4V60.4C663.255 60.4 676.493 64.815 686.313 71.5008C696.148 78.1973 702.755 87.3104 707.198 97.0173C716.13 116.534 716.157 138.075 716.157 145.95H722.157ZM645.307 54.4C617.406 54.4 596.091 64.5079 581.823 80.4224L586.29 84.4276C599.322 69.8921 618.958 60.4 645.307 60.4V54.4ZM587.057 82.425V63H581.057V82.425H587.057ZM584.057 60H541.707V66H584.057V60ZM538.707 63V252H544.707V63H538.707ZM541.707 255H590.007V249H541.707V255ZM593.007 252V156.1H587.007V252H593.007ZM593.007 156.1C593.007 133.118 598.834 120.578 606.03 113.737C613.246 106.876 622.405 105.2 630.257 105.2V99.2C621.659 99.2 610.693 101.024 601.896 109.388C593.079 117.772 587.007 132.182 587.007 156.1H593.007ZM630.257 105.2C639.841 105.2 646.793 107.749 651.914 111.638C657.066 115.552 660.589 120.995 662.987 127.135C667.826 139.525 667.857 154.104 667.857 162.75H673.857C673.857 154.246 673.887 138.55 668.576 124.952C665.899 118.098 661.81 111.62 655.543 106.86C649.245 102.076 640.973 99.2 630.257 99.2V105.2ZM932.998 202.65L935.77 203.798L937.056 200.693L933.825 199.766L932.998 202.65ZM885.398 189L886.225 186.116L883.738 185.403L882.667 187.759L885.398 189ZM801.923 170.8V167.8H798.509L798.948 171.186L801.923 170.8ZM934.573 170.8V173.8H937.331L937.563 171.052L934.573 170.8ZM803.148 135.45L800.209 134.849L799.473 138.45H803.148V135.45ZM886.448 135.45V138.45H889.864L889.423 135.063L886.448 135.45ZM848.998 260.25C886.501 260.25 920.915 239.668 935.77 203.798L930.227 201.502C916.382 234.932 884.296 254.25 848.998 254.25V260.25ZM933.825 199.766L886.225 186.116L884.571 191.884L932.172 205.534L933.825 199.766ZM882.667 187.759C876.202 201.982 863.693 209.8 846.198 209.8V215.8C865.804 215.8 880.595 206.818 888.13 190.241L882.667 187.759ZM846.198 209.8C833.944 209.8 824.553 206.232 817.806 199.744C811.024 193.222 806.59 183.436 804.898 170.414L798.948 171.186C800.757 185.114 805.598 196.328 813.647 204.069C821.731 211.843 832.727 215.8 846.198 215.8V209.8ZM801.923 173.8H934.573V167.8H801.923V173.8ZM937.563 171.052C940.494 136.229 933.197 107.147 917.228 86.7033C901.209 66.1952 876.748 54.75 846.198 54.75V60.75C875.149 60.75 897.763 71.5298 912.5 90.3967C927.288 109.328 934.427 136.771 931.584 170.548L937.563 171.052ZM846.198 54.75C817.453 54.75 792.752 65.0969 775.247 83.5543C757.751 102.001 747.648 128.33 747.648 159.95H753.648C753.648 129.62 763.32 104.849 779.6 87.6832C795.87 70.5281 818.944 60.75 846.198 60.75V54.75ZM747.648 159.95C747.648 189.029 757.982 214.142 775.92 231.989C793.859 249.837 819.231 260.25 848.998 260.25V254.25C820.666 254.25 796.863 244.363 780.152 227.736C763.44 211.108 753.648 187.571 753.648 159.95H747.648ZM806.088 136.051C808.441 124.537 813.073 116.134 819.876 110.584C826.68 105.033 836.006 102.05 848.298 102.05V96.05C835.041 96.05 824.242 99.2791 816.083 105.935C807.924 112.591 802.756 122.388 800.209 134.849L806.088 136.051ZM848.298 102.05C859.304 102.05 867.155 104.649 872.664 109.85C878.215 115.09 881.856 123.408 883.474 135.837L889.423 135.063C887.716 121.942 883.745 112.06 876.783 105.487C869.78 98.8759 860.218 96.05 848.298 96.05V102.05ZM886.448 132.45H803.148V138.45H886.448V132.45ZM994.82 336L992.001 334.974L990.535 339H994.82V336ZM1038.92 336V339H1040.97L1041.71 337.093L1038.92 336ZM1145.67 63L1148.46 64.0925L1150.06 60H1145.67V63ZM1098.07 63V60H1096.01L1095.27 61.9254L1098.07 63ZM1048.72 191.625L1045.92 192.706L1048.73 199.974L1051.52 192.7L1048.72 191.625ZM999.02 63L1001.82 61.9187L1001.08 60H999.02V63ZM949.67 63V60H945.21L946.891 64.1311L949.67 63ZM1025.97 250.425L1028.79 251.451L1029.18 250.365L1028.75 249.294L1025.97 250.425ZM994.82 339H1038.92V333H994.82V339ZM1041.71 337.093L1148.46 64.0925L1142.88 61.9075L1036.13 334.907L1041.71 337.093ZM1145.67 60H1098.07V66H1145.67V60ZM1095.27 61.9254L1045.92 190.55L1051.52 192.7L1100.87 64.0746L1095.27 61.9254ZM1051.52 190.544L1001.82 61.9187L996.222 64.0813L1045.92 192.706L1051.52 190.544ZM999.02 60H949.67V66H999.02V60ZM946.891 64.1311L1023.19 251.556L1028.75 249.294L952.448 61.8688L946.891 64.1311ZM1023.15 249.399L992.001 334.974L997.639 337.026L1028.79 251.451L1023.15 249.399ZM134.9 481L135.453 483.949L137.9 483.49V481H134.9ZM134.9 441.45H137.9V437.999L134.482 438.479L134.9 441.45ZM84.15 432L86.6865 430.398L86.676 430.381L86.6653 430.365L84.15 432ZM80.3 328.75V325.75H77.3V328.75H80.3ZM134.9 328.75V331.75H137.9V328.75H134.9ZM134.9 292H137.9V289H134.9V292ZM80.3 292H77.3V295H80.3V292ZM80.3 239.5H83.3V236.5H80.3V239.5ZM32.7 239.5V236.5H29.7V239.5H32.7ZM32.7 292V295H35.7V292H32.7ZM0.5 292V289H-2.5V292H0.5ZM0.5 328.75H-2.5V331.75H0.5V328.75ZM32.7 328.75H35.7V325.75H32.7V328.75ZM40.4 457.55L37.7725 458.998L37.7791 459.01L40.4 457.55ZM137.9 481V441.45H131.9V481H137.9ZM134.482 438.479C123.305 440.051 113.057 440.958 104.643 439.916C96.2717 438.88 90.2163 435.987 86.6865 430.398L81.6135 433.602C86.4837 441.313 94.6033 444.72 103.907 445.871C113.168 447.017 124.095 445.999 135.318 444.421L134.482 438.479ZM86.6653 430.365C84.8269 427.537 83.8981 423.374 83.5118 417.708C83.1273 412.069 83.3 405.523 83.3 398.05H77.3C77.3 405.277 77.1227 412.206 77.5257 418.117C77.9269 424.001 78.9231 429.463 81.6347 433.635L86.6653 430.365ZM83.3 398.05V328.75H77.3V398.05H83.3ZM80.3 331.75H134.9V325.75H80.3V331.75ZM137.9 328.75V292H131.9V328.75H137.9ZM134.9 289H80.3V295H134.9V289ZM83.3 292V239.5H77.3V292H83.3ZM80.3 236.5H32.7V242.5H80.3V236.5ZM29.7 239.5V292H35.7V239.5H29.7ZM32.7 289H0.5V295H32.7V289ZM-2.5 292V328.75H3.5V292H-2.5ZM0.5 331.75H32.7V325.75H0.5V331.75ZM29.7 328.75V400.85H35.7V328.75H29.7ZM29.7 400.85C29.7 423.169 27.8519 440.994 37.7725 458.998L43.0275 456.102C34.0481 439.806 35.7 424.031 35.7 400.85H29.7ZM37.7791 459.01C46.0483 473.857 60.8086 481.912 78.1426 485.343C95.4517 488.769 115.641 487.663 135.453 483.949L134.347 478.051C114.959 481.687 95.5983 482.681 79.3075 479.457C63.0414 476.238 50.1517 468.893 43.0209 456.09L37.7791 459.01ZM177.018 481H174.018V484H177.018V481ZM224.968 481V484H227.968V481H224.968ZM250.868 339.6L252.118 342.327L252.129 342.322L252.141 342.316L250.868 339.6ZM287.968 336.45L287.106 339.323L290.968 340.482V336.45H287.968ZM287.968 292H290.968V289.345L288.332 289.022L287.968 292ZM239.318 301.1L240.823 303.695L240.857 303.675L240.89 303.655L239.318 301.1ZM219.018 322.45H216.018V333.947L221.635 323.916L219.018 322.45ZM219.018 292H222.018V289H219.018V292ZM177.018 292V289H174.018V292H177.018ZM177.018 484H224.968V478H177.018V484ZM227.968 481V384.4H221.968V481H227.968ZM227.968 384.4C227.968 363.657 236.567 349.455 252.118 342.327L249.618 336.873C231.568 345.145 221.968 361.743 221.968 384.4H227.968ZM252.141 342.316C262.698 337.368 277.338 336.393 287.106 339.323L288.83 333.577C277.597 330.207 261.438 331.332 249.594 336.884L252.141 342.316ZM290.968 336.45V292H284.968V336.45H290.968ZM288.332 289.022C270.675 286.86 252.104 289.709 237.745 298.545L240.89 303.655C253.832 295.691 270.96 292.94 287.603 294.978L288.332 289.022ZM237.812 298.505C228.505 303.903 221.506 311.867 216.4 320.984L221.635 323.916C226.329 315.533 232.63 308.447 240.823 303.695L237.812 298.505ZM222.018 322.45V292H216.018V322.45H222.018ZM219.018 289H177.018V295H219.018V289ZM174.018 292V481H180.018V292H174.018ZM434.738 457.9H437.738V449.68L432.443 455.968L434.738 457.9ZM434.738 481H431.738V484H434.738V481ZM476.388 481V484H479.388V481H476.388ZM468.688 321.05L471.344 319.655L471.341 319.65L468.688 321.05ZM313.988 339.6L311.117 338.729L310.257 341.564L313.081 342.46L313.988 339.6ZM357.038 353.25L356.131 356.11L358.915 356.992L359.872 354.233L357.038 353.25ZM429.488 355.875L429.926 358.843L432.783 358.421L432.47 355.55L429.488 355.875ZM348.638 371.8L347.608 368.982L347.602 368.984L348.638 371.8ZM373.488 406.45L372.444 403.637L372.409 403.65L372.374 403.665L373.488 406.45ZM429.138 394.375L432.137 394.433L432.207 390.809L428.634 391.418L429.138 394.375ZM424.238 423.6L421.543 422.281L421.537 422.293L421.531 422.306L424.238 423.6ZM370.338 489.25C385.151 489.25 397.492 487.108 408.347 482.299C419.217 477.483 428.405 470.077 437.033 459.832L432.443 455.968C424.27 465.673 415.784 472.442 405.916 476.813C396.034 481.192 384.575 483.25 370.338 483.25V489.25ZM431.738 457.9V481H437.738V457.9H431.738ZM434.738 484H476.388V478H434.738V484ZM479.388 481V365.5H473.388V481H479.388ZM479.388 365.5C479.388 348.378 479.076 334.383 471.344 319.655L466.032 322.444C473 335.717 473.388 348.322 473.388 365.5H479.388ZM471.341 319.65C457.257 292.965 428.488 283.75 394.838 283.75V289.75C427.687 289.75 453.518 298.735 466.035 322.45L471.341 319.65ZM394.838 283.75C371.61 283.75 353.125 289.293 339.176 299.034C325.215 308.784 316.013 322.591 311.117 338.729L316.859 340.471C321.413 325.459 329.885 312.841 342.612 303.953C355.351 295.057 372.566 289.75 394.838 289.75V283.75ZM313.081 342.46L356.131 356.11L357.945 350.39L314.895 336.74L313.081 342.46ZM359.872 354.233C365.204 338.864 381.379 333.15 394.838 333.15V327.15C380.297 327.15 360.771 333.336 354.204 352.267L359.872 354.233ZM394.838 333.15C405.758 333.15 413.17 335.127 418.04 338.783C422.798 342.357 425.602 347.901 426.506 356.2L432.47 355.55C431.449 346.174 428.128 338.856 421.643 333.985C415.268 329.198 406.318 327.15 394.838 327.15V333.15ZM429.049 352.907C393.669 358.136 366.168 362.201 347.608 368.982L349.667 374.618C367.508 368.099 394.257 364.114 429.926 358.843L429.049 352.907ZM347.602 368.984C331.948 374.742 321.044 382.771 314.089 392.994C307.138 403.21 304.338 415.314 304.338 428.85H310.338C310.338 416.136 312.963 405.315 319.049 396.369C325.132 387.429 334.877 380.058 349.674 374.616L347.602 368.984ZM304.338 428.85C304.338 445.322 310.205 460.475 321.518 471.51C332.839 482.552 349.383 489.25 370.338 489.25V483.25C350.693 483.25 335.737 476.998 325.708 467.215C315.671 457.425 310.338 443.878 310.338 428.85H304.338ZM356.888 428.15C356.888 424.1 358.056 420.801 360.68 417.849C363.391 414.8 367.806 411.954 374.602 409.235L372.374 403.665C365.17 406.546 359.785 409.825 356.196 413.863C352.519 417.999 350.888 422.75 350.888 428.15H356.888ZM374.531 409.263C385.067 405.354 397.719 402.77 429.642 397.332L428.634 391.418C396.856 396.83 383.609 399.496 372.444 403.637L374.531 409.263ZM426.138 394.317C425.962 403.492 425.235 414.737 421.543 422.281L426.933 424.919C431.291 416.013 431.964 403.458 432.137 394.433L426.138 394.317ZM421.531 422.306C418.022 429.644 405.256 445.8 380.488 445.8V451.8C408.219 451.8 422.754 433.656 426.944 424.894L421.531 422.306ZM380.488 445.8C372.686 445.8 366.758 443.969 362.852 440.956C359.04 438.016 356.888 433.755 356.888 428.15H350.888C350.888 435.495 353.811 441.559 359.187 445.707C364.468 449.781 371.84 451.8 380.488 451.8V445.8ZM650.691 481H647.691V484H650.691V481ZM698.991 481V484H701.991V481H698.991ZM563.891 311.425H560.891V319.265L566.124 313.428L563.891 311.425ZM563.891 292H566.891V289H563.891V292ZM521.541 292V289H518.541V292H521.541ZM521.541 481H518.541V484H521.541V481ZM569.841 481V484H572.841V481H569.841ZM647.691 391.75V481H653.691V391.75H647.691ZM650.691 484H698.991V478H650.691V484ZM701.991 481V374.95H695.991V481H701.991ZM701.991 374.95C701.991 367.075 702.017 344.341 692.487 323.52C687.699 313.058 680.459 302.987 669.524 295.541C658.573 288.085 644.118 283.4 625.141 283.4V289.4C643.089 289.4 656.327 293.815 666.147 300.501C675.982 307.197 682.589 316.31 687.032 326.017C695.964 345.534 695.991 367.075 695.991 374.95H701.991ZM625.141 283.4C597.24 283.4 575.925 293.508 561.657 309.422L566.124 313.428C579.156 298.892 598.792 289.4 625.141 289.4V283.4ZM566.891 311.425V292H560.891V311.425H566.891ZM563.891 289H521.541V295H563.891V289ZM518.541 292V481H524.541V292H518.541ZM521.541 484H569.841V478H521.541V484ZM572.841 481V385.1H566.841V481H572.841ZM572.841 385.1C572.841 362.118 578.668 349.578 585.864 342.737C593.08 335.876 602.239 334.2 610.091 334.2V328.2C601.493 328.2 590.527 330.024 581.73 338.388C572.913 346.772 566.841 361.182 566.841 385.1H572.841ZM610.091 334.2C619.674 334.2 626.627 336.749 631.748 340.638C636.9 344.552 640.423 349.995 642.821 356.135C647.66 368.525 647.691 383.104 647.691 391.75H653.691C653.691 383.246 653.721 367.55 648.41 353.952C645.733 347.098 641.644 340.62 635.377 335.86C629.079 331.076 620.807 328.2 610.091 328.2V334.2ZM837.85 367.95L838.606 365.047L838.597 365.044L838.589 365.042L837.85 367.95ZM816.5 327.7L816.735 324.709L816.708 324.707L816.68 324.705L816.5 327.7ZM846.95 351.5L843.974 351.872L844.366 355.013L847.481 354.453L846.95 351.5ZM895.6 342.75L896.131 345.703L898.979 345.19L898.57 342.326L895.6 342.75ZM803.2 401.9L803.969 399L803.959 398.997L803.949 398.995L803.2 401.9ZM782.55 416.95L785.483 416.317L784.889 413.563L782.102 413.984L782.55 416.95ZM733.9 424.3L733.452 421.334L730.462 421.785L730.938 424.772L733.9 424.3ZM818.25 489.25C843.358 489.25 863.865 483.289 878.163 472.025C892.549 460.692 900.35 444.218 900.35 423.95H894.35C894.35 442.532 887.277 457.208 874.45 467.312C861.535 477.486 842.493 483.25 818.25 483.25V489.25ZM900.35 423.95C900.35 408.608 896.019 396.547 885.799 386.939C875.746 377.489 860.273 370.684 838.606 365.047L837.095 370.853C858.478 376.416 872.754 382.911 881.689 391.311C890.457 399.553 894.35 409.892 894.35 423.95H900.35ZM838.589 365.042C816.434 359.416 804.17 355.9 797.414 352.647C794.078 351.041 792.445 349.659 791.59 348.425C790.788 347.267 790.45 345.918 790.45 343.8H784.45C784.45 346.582 784.9 349.302 786.657 351.84C788.362 354.303 791.06 356.247 794.811 358.053C802.23 361.625 815.166 365.284 837.112 370.858L838.589 365.042ZM790.45 343.8C790.45 339.648 792.575 336.279 796.862 333.914C801.271 331.482 807.907 330.19 816.321 330.695L816.68 324.705C807.594 324.16 799.705 325.493 793.964 328.661C788.101 331.896 784.45 337.102 784.45 343.8H790.45ZM816.266 330.691C824.801 331.36 831.354 333.682 835.918 337.241C840.422 340.752 843.192 345.618 843.974 351.872L849.927 351.128C848.959 343.382 845.429 337.048 839.607 332.509C833.847 328.018 826.05 325.44 816.735 324.709L816.266 330.691ZM847.481 354.453L896.131 345.703L895.069 339.797L846.419 348.547L847.481 354.453ZM898.57 342.326C893.386 306.039 860.814 283.75 815.45 283.75V289.75C858.987 289.75 888.014 310.861 892.631 343.174L898.57 342.326ZM815.45 283.75C792.055 283.75 772.524 289.641 758.773 300.495C744.949 311.407 737.2 327.161 737.2 346.25H743.2C743.2 328.939 750.152 314.943 762.49 305.205C774.901 295.409 792.996 289.75 815.45 289.75V283.75ZM737.2 346.25C737.2 361.463 741.651 373.288 752.391 382.757C762.922 392.04 779.253 398.83 802.452 404.805L803.949 398.995C780.948 393.07 765.779 386.56 756.359 378.256C747.15 370.137 743.2 360.087 743.2 346.25H737.2ZM802.432 404.8C823.057 410.265 834.015 413.5 839.884 416.66C842.72 418.187 844.022 419.525 844.71 420.798C845.417 422.108 845.7 423.752 845.7 426.4H851.7C851.7 423.448 851.415 420.586 849.989 417.947C848.544 415.272 846.149 413.219 842.729 411.377C836.086 407.8 824.293 404.385 803.969 399L802.432 404.8ZM845.7 426.4C845.7 431.408 843.698 435.204 839.928 437.86C836.025 440.612 829.978 442.3 821.75 442.3V448.3C830.672 448.3 838.101 446.488 843.385 442.765C848.803 438.946 851.7 433.292 851.7 426.4H845.7ZM821.75 442.3C811.743 442.3 803.56 439.801 797.481 435.39C791.429 431 787.264 424.575 785.483 416.317L779.618 417.583C781.687 427.175 786.622 434.925 793.957 440.247C801.266 445.549 810.757 448.3 821.75 448.3V442.3ZM782.102 413.984L733.452 421.334L734.349 427.266L782.999 419.916L782.102 413.984ZM730.938 424.772C734.199 445.248 743.764 461.468 758.812 472.524C773.81 483.544 794 489.25 818.25 489.25V483.25C794.9 483.25 776.065 477.756 762.364 467.689C748.712 457.657 739.901 442.902 736.863 423.828L730.938 424.772ZM921.807 328.75H918.807V331.75H921.807V328.75ZM951.557 328.75H954.557V325.75H951.557V328.75ZM951.557 481H948.557V484H951.557V481ZM999.157 481V484H1002.16V481H999.157ZM999.157 328.75V325.75H996.157V328.75H999.157ZM1042.91 328.75V331.75H1045.91V328.75H1042.91ZM1042.91 292H1045.91V289H1042.91V292ZM999.157 292H996.157V295H999.157V292ZM1042.91 262.25V265.25H1045.91V262.25H1042.91ZM1042.91 223.75H1045.91V220.75H1042.91V223.75ZM964.157 241.25L966.38 243.264L966.387 243.256L966.394 243.248L964.157 241.25ZM951.557 292V295H954.557V292H951.557ZM921.807 292V289H918.807V292H921.807ZM921.807 331.75H951.557V325.75H921.807V331.75ZM948.557 328.75V481H954.557V328.75H948.557ZM951.557 484H999.157V478H951.557V484ZM1002.16 481V328.75H996.157V481H1002.16ZM999.157 331.75H1042.91V325.75H999.157V331.75ZM1045.91 328.75V292H1039.91V328.75H1045.91ZM1042.91 289H999.157V295H1042.91V289ZM1002.16 292V281.5H996.157V292H1002.16ZM1002.16 281.5C1002.16 276.922 1003.67 272.94 1006.62 270.098C1009.57 267.256 1014.27 265.25 1021.21 265.25V259.25C1013.1 259.25 1006.77 261.619 1002.46 265.777C998.143 269.935 996.157 275.578 996.157 281.5H1002.16ZM1021.21 265.25H1042.91V259.25H1021.21V265.25ZM1045.91 262.25V223.75H1039.91V262.25H1045.91ZM1042.91 220.75H1019.46V226.75H1042.91V220.75ZM1019.46 220.75C1006.21 220.75 980.481 218.462 961.919 239.252L966.394 243.248C982.832 224.838 1005.41 226.75 1019.46 226.75V220.75ZM961.933 239.236C954.674 247.25 951.363 256.969 949.842 266.341C948.329 275.672 948.557 284.929 948.557 292H954.557C954.557 284.721 954.347 276.041 955.765 267.302C957.176 258.606 960.165 250.125 966.38 243.264L961.933 239.236ZM951.557 289H921.807V295H951.557V289ZM918.807 292V328.75H924.807V292H918.807ZM1235.83 431.65L1238.6 432.798L1239.89 429.693L1236.66 428.766L1235.83 431.65ZM1188.23 418L1189.06 415.116L1186.57 414.403L1185.5 416.759L1188.23 418ZM1104.76 399.8V396.8H1101.34L1101.78 400.186L1104.76 399.8ZM1237.41 399.8V402.8H1240.16L1240.39 400.052L1237.41 399.8ZM1105.98 364.45L1103.04 363.849L1102.31 367.45H1105.98V364.45ZM1189.28 364.45V367.45H1192.7L1192.26 364.063L1189.28 364.45ZM1151.83 489.25C1189.33 489.25 1223.75 468.668 1238.6 432.798L1233.06 430.502C1219.21 463.932 1187.13 483.25 1151.83 483.25V489.25ZM1236.66 428.766L1189.06 415.116L1187.4 420.884L1235 434.534L1236.66 428.766ZM1185.5 416.759C1179.03 430.982 1166.52 438.8 1149.03 438.8V444.8C1168.64 444.8 1183.43 435.818 1190.96 419.241L1185.5 416.759ZM1149.03 438.8C1136.78 438.8 1127.39 435.232 1120.64 428.744C1113.86 422.222 1109.42 412.436 1107.73 399.414L1101.78 400.186C1103.59 414.114 1108.43 425.328 1116.48 433.069C1124.56 440.843 1135.56 444.8 1149.03 444.8V438.8ZM1104.76 402.8H1237.41V396.8H1104.76V402.8ZM1240.39 400.052C1243.33 365.229 1236.03 336.147 1220.06 315.703C1204.04 295.195 1179.58 283.75 1149.03 283.75V289.75C1177.98 289.75 1200.59 300.53 1215.33 319.397C1230.12 338.328 1237.26 365.771 1234.42 399.548L1240.39 400.052ZM1149.03 283.75C1120.28 283.75 1095.58 294.097 1078.08 312.554C1060.58 331.001 1050.48 357.33 1050.48 388.95H1056.48C1056.48 358.62 1066.15 333.849 1082.43 316.683C1098.7 299.528 1121.78 289.75 1149.03 289.75V283.75ZM1050.48 388.95C1050.48 418.029 1060.81 443.142 1078.75 460.989C1096.69 478.837 1122.06 489.25 1151.83 489.25V483.25C1123.5 483.25 1099.7 473.363 1082.98 456.736C1066.27 440.108 1056.48 416.571 1056.48 388.95H1050.48ZM1108.92 365.051C1111.27 353.537 1115.9 345.134 1122.71 339.584C1129.51 334.033 1138.84 331.05 1151.13 331.05V325.05C1137.87 325.05 1127.07 328.279 1118.92 334.935C1110.76 341.591 1105.59 351.388 1103.04 363.849L1108.92 365.051ZM1151.13 331.05C1162.14 331.05 1169.99 333.649 1175.5 338.85C1181.05 344.09 1184.69 352.408 1186.31 364.837L1192.26 364.063C1190.55 350.942 1186.58 341.06 1179.61 334.487C1172.61 327.876 1163.05 325.05 1151.13 325.05V331.05ZM1189.28 361.45H1105.98V367.45H1189.28V361.45ZM1276.92 481H1273.92V484H1276.92V481ZM1324.87 481V484H1327.87V481H1324.87ZM1350.77 339.6L1352.02 342.327L1352.03 342.322L1352.04 342.316L1350.77 339.6ZM1387.87 336.45L1387.01 339.323L1390.87 340.482V336.45H1387.87ZM1387.87 292H1390.87V289.345L1388.23 289.022L1387.87 292ZM1339.22 301.1L1340.73 303.695L1340.76 303.675L1340.79 303.655L1339.22 301.1ZM1318.92 322.45H1315.92V333.947L1321.54 323.916L1318.92 322.45ZM1318.92 292H1321.92V289H1318.92V292ZM1276.92 292V289H1273.92V292H1276.92ZM1276.92 484H1324.87V478H1276.92V484ZM1327.87 481V384.4H1321.87V481H1327.87ZM1327.87 384.4C1327.87 363.657 1336.47 349.455 1352.02 342.327L1349.52 336.873C1331.47 345.145 1321.87 361.743 1321.87 384.4H1327.87ZM1352.04 342.316C1362.6 337.368 1377.24 336.393 1387.01 339.323L1388.73 333.577C1377.5 330.207 1361.34 331.332 1349.5 336.884L1352.04 342.316ZM1390.87 336.45V292H1384.87V336.45H1390.87ZM1388.23 289.022C1370.58 286.86 1352.01 289.709 1337.65 298.545L1340.79 303.655C1353.73 295.691 1370.86 292.94 1387.51 294.978L1388.23 289.022ZM1337.71 298.505C1328.41 303.903 1321.41 311.867 1316.3 320.984L1321.54 323.916C1326.23 315.533 1332.53 308.447 1340.73 303.695L1337.71 298.505ZM1321.92 322.45V292H1315.92V322.45H1321.92ZM1318.92 289H1276.92V295H1318.92V289ZM1273.92 292V481H1279.92V292H1273.92Z" fill="white"/>
</svg>
