<svg width="71" height="73" viewBox="0 0 71 73" fill="none" xmlns="http://www.w3.org/2000/svg">
<g clip-path="url(#clip0_108_1893)">
<path d="M22.9092 16.5619C25.1102 14.6913 27.8556 13.6875 30.7429 13.6875C31.2162 13.6875 31.7132 13.7103 32.2102 13.7787C37.3459 14.3491 41.6532 18.3412 42.4579 23.2687C43.2152 27.9909 40.9669 32.5991 36.6832 34.9716C35.9496 35.3822 35.4999 36.135 35.4999 36.9563V38.7812H33.1332V33.4431C33.1332 31.6181 33.8669 29.8844 35.2159 28.6069L37.1802 26.7134C38.1032 25.8238 38.1032 24.3866 37.1802 23.4969C36.2572 22.6072 34.7662 22.6072 33.8432 23.4969L31.8789 25.3903C31.4766 25.7781 31.1216 26.2344 30.7902 26.6906C30.4352 26.2572 30.1039 25.8009 29.7016 25.3903L27.7372 23.4969C26.8142 22.6072 25.3232 22.6072 24.4002 23.4969C23.4772 24.3866 23.4772 25.8238 24.4002 26.7134L26.3646 28.6069C27.6662 29.8844 28.3999 31.5953 28.3999 33.4431V38.7812H26.0332V36.9334C26.0332 36.1122 25.5836 35.3594 24.8499 34.9487C21.2052 32.9184 18.9332 29.1316 18.9332 25.0938C18.9332 21.8316 20.3769 18.7291 22.9092 16.5619Z" fill="#FFF3E1"/>
<path d="M26.0333 43.3438H35.5V45.625H26.0333V43.3438Z" fill="#FFF3E1"/>
<path d="M29.5596 0.0230269C37.9849 -0.296348 46.0079 2.64646 52.0902 8.30396C58.0306 13.8018 61.3676 21.1474 61.5332 29.0405L70.6922 44.4846C71.1182 45.1918 71.1182 46.0587 70.6922 46.7658C70.2662 47.473 69.4852 47.9065 68.6332 47.9065H61.5332V58.674C61.5332 60.0883 60.8706 61.4115 59.7109 62.2783C58.5512 63.1452 57.0839 63.4418 55.6639 63.0996L52.0666 62.2327L43.7122 60.2252C42.4579 59.9058 41.1562 60.6587 40.8486 61.8905C40.5409 63.0996 41.2982 64.3543 42.5762 64.6508L52.0666 66.9321V70.719C52.0666 71.9737 51.0016 73.0002 49.6999 73.0002H16.5666C15.2649 73.0002 14.1999 71.9737 14.1999 70.719V59.9058C16.9216 61.2974 19.8562 62.3696 22.9566 63.0312C23.1222 63.0768 23.3116 63.0996 23.4772 63.0996C24.5659 63.0996 25.5362 62.3696 25.7729 61.3202C26.0806 60.0883 25.2759 58.8565 23.9979 58.5827C20.4479 57.8071 17.1346 56.4612 14.1999 54.6362V54.6133C5.23022 49.0699 -0.189443 39.3974 -0.000109259 29.0862C0.307557 13.6421 13.5609 0.616152 29.5596 0.0230269ZM21.2999 38.1883V45.6252C21.2999 48.1346 23.4299 50.1877 26.0332 50.1877H35.4999C38.1032 50.1877 40.2332 48.1346 40.2332 45.6252V38.1883C45.4399 34.698 48.1142 28.6983 47.1202 22.539C46.0079 15.6496 39.9729 10.0377 32.7546 9.23928C28.0212 8.71459 23.2879 10.129 19.7616 13.163C16.2352 16.1971 14.1999 20.5315 14.1999 25.094C14.1999 30.318 16.8979 35.2227 21.2999 38.1883Z" fill="#FFF3E1"/>
</g>
<defs>
<clipPath id="clip0_108_1893">
<rect width="71" height="73" fill="white" transform="matrix(-1 0 0 1 71 0)"/>
</clipPath>
</defs>
</svg>
