<svg width="32" height="32" viewBox="0 0 32 32" fill="none" xmlns="http://www.w3.org/2000/svg">
<path d="M22.6667 27.9997C20.4617 27.9977 18.2911 27.4527 16.3467 26.413L15.7467 26.0796C11.601 23.8507 8.20225 20.4519 5.97333 16.3063L5.64 15.7063C4.57309 13.7509 4.00951 11.5606 4 9.33296V8.43962C3.99944 7.7289 4.28261 7.04736 4.78667 6.54629L7.04 4.29296C7.25884 4.07242 7.56775 3.96613 7.87595 4.0053C8.18415 4.04448 8.45664 4.22469 8.61333 4.49296L11.6133 9.63962C11.9167 10.1635 11.8291 10.826 11.4 11.253L8.88 13.773C8.67072 13.9799 8.62196 14.2997 8.76 14.5596L9.22667 15.4396C10.9027 18.5442 13.4524 21.0892 16.56 22.7596L17.44 23.2396C17.7 23.3776 18.0197 23.3288 18.2267 23.1196L20.7467 20.5996C21.1736 20.1706 21.8361 20.083 22.36 20.3863L27.5067 23.3863C27.7749 23.543 27.9552 23.8155 27.9943 24.1236C28.0335 24.4319 27.9272 24.7409 27.7067 24.9597L25.4533 27.213C24.9523 27.717 24.2707 28.0002 23.56 27.9997H22.6667Z" fill="#F00000"/>
</svg>
