<svg width="32" height="32" viewBox="0 0 32 32" fill="none" xmlns="http://www.w3.org/2000/svg">
<path d="M16.0005 2.66675C10.6752 2.66675 6.34277 6.99915 6.34277 12.3243C6.34277 18.9331 14.9854 28.6351 15.3534 29.0449C15.699 29.4298 16.3025 29.4291 16.6475 29.0449C17.0154 28.6351 25.6581 18.9331 25.6581 12.3243C25.6579 6.99915 21.3257 2.66675 16.0005 2.66675ZM16.0005 17.1834C13.3211 17.1834 11.1415 15.0037 11.1415 12.3243C11.1415 9.64508 13.3212 7.46539 16.0005 7.46539C18.6797 7.46539 20.8594 9.64513 20.8594 12.3244C20.8594 15.0037 18.6797 17.1834 16.0005 17.1834Z" fill="#F00000"/>
</svg>
