<svg width="48" height="48" viewBox="0 0 48 48" fill="none" xmlns="http://www.w3.org/2000/svg">
<g clip-path="url(#clip0_333_22)">
<path d="M24.4302 31L21.4302 36L24.4302 40L27.4302 36L24.4302 31Z" fill="#D2C0F4"/>
<path d="M36.39 39.26C36.3 39.59 36.05 39.84 35.73 39.94C35.63 39.97 35.53 39.99 35.43 39.99C35.21 39.99 34.99 39.91 34.81 39.77L32.77 38.14L34.27 31.77C34.49 30.84 34.65 29.9 34.76 28.97C36.76 31.97 37.4 35.74 36.39 39.26Z" fill="#D2C0F4"/>
<path d="M16.0899 38.14L14.0499 39.77C13.8699 39.91 13.6499 40 13.4299 40C13.3299 40 13.2299 39.98 13.1299 39.95C12.8099 39.85 12.5599 39.6 12.4699 39.27C11.4599 35.73 12.0999 31.95 14.0999 28.97C14.2099 29.9 14.3699 30.84 14.5899 31.78L16.0899 38.14Z" fill="#D2C0F4"/>
<path d="M29.1397 12.9999C28.0197 11.2699 26.6697 9.66988 25.0997 8.25988C24.7197 7.91988 24.1397 7.91988 23.7597 8.25988C22.1897 9.66988 20.8397 11.2699 19.7197 12.9999H29.1397Z" fill="#D2C0F4"/>
<path d="M24.4297 23C25.5343 23 26.4297 22.1046 26.4297 21C26.4297 19.8954 25.5343 19 24.4297 19C23.3251 19 22.4297 19.8954 22.4297 21C22.4297 22.1046 23.3251 23 24.4297 23Z" fill="#D2C0F4"/>
<path d="M18.5698 15C16.0098 19.95 15.2198 25.72 16.5398 31.33L17.6398 36H19.0898L24.4298 27.11L29.7698 36H31.2198L32.3198 31.33C33.6398 25.72 32.8498 19.94 30.2998 15H18.5698ZM24.4298 25C22.2198 25 20.4298 23.21 20.4298 21C20.4298 18.79 22.2198 17 24.4298 17C26.6398 17 28.4298 18.79 28.4298 21C28.4298 23.21 26.6398 25 24.4298 25Z" fill="#D2C0F4"/>
</g>
<defs>
<clipPath id="clip0_333_22">
<rect width="24.86" height="32" fill="white" transform="translate(12 8)"/>
</clipPath>
</defs>
</svg>
