<svg width="48" height="48" viewBox="0 0 48 48" fill="none" xmlns="http://www.w3.org/2000/svg">
<path d="M23 13.0208C20.33 13.0508 17.66 13.2108 15 13.5008V29.6108L23 33.9208V13.0208Z" fill="#F00000"/>
<path d="M37.15 9.01086C28.42 7.67086 19.57 7.67086 10.85 9.01086C10.36 9.08086 10 9.50086 10 9.99086V32.0009C10 32.3709 10.2 32.7109 10.53 32.8809L23.53 39.8809C23.67 39.9609 23.84 40.0009 24 40.0009C24.16 40.0009 24.33 39.9609 24.47 39.8809L37.47 32.8809C37.8 32.7109 38 32.3709 38 32.0009V9.99086C38 9.50086 37.64 9.08086 37.15 9.01086ZM35 30.2109C35 30.5809 34.8 30.9209 34.47 31.0909L24.47 36.4709C24.36 36.5309 24.15 36.5909 24 36.5909C23.84 36.5909 23.61 36.5209 23.53 36.4709L13.53 31.0909C13.2 30.9109 13 30.5809 13 30.2109V12.6109C13 12.1009 13.38 11.6809 13.88 11.6209C20.57 10.8109 27.38 10.8009 34.12 11.6209C34.62 11.6809 35 12.1009 35 12.6109V30.2109Z" fill="#F00000"/>
<path d="M25 33.9208L33 29.6108V13.5008C30.34 13.2108 27.67 13.0508 25 13.0208V33.9208Z" fill="#F00000"/>
</svg>
