<svg width="135" height="135" viewBox="0 0 135 135" fill="none" xmlns="http://www.w3.org/2000/svg">
<path d="M78.6923 0H56.3746C56.3512 14.9394 50.4043 29.2602 39.8372 39.824C29.2726 50.3918 14.9453 56.3375 0 56.356V78.6663C14.9404 78.6899 29.2624 84.6319 39.8289 95.1908C50.3955 105.75 56.3451 120.065 56.3746 135H78.6923C78.7159 120.072 84.6537 105.762 95.2064 95.2C105.759 84.6382 120.067 78.6853 135 78.644V56.3337C120.069 56.2853 105.764 50.3341 95.2074 39.7794C84.6615 29.2215 78.7241 14.9202 78.6923 0ZM67.5335 94.6405C60.7986 83.4966 51.425 74.1798 40.2389 67.5112C51.4259 60.8341 60.7993 51.5099 67.5335 40.3594C74.2281 51.5106 83.573 60.8371 94.7388 67.5112C83.5791 74.1833 74.2353 83.501 67.5335 94.6405Z" fill="#F00000"/>
</svg>
