<svg width="41" height="41" viewBox="0 0 41 41" fill="none" xmlns="http://www.w3.org/2000/svg">
<path d="M23.8992 0H17.1212C17.1141 4.53714 15.308 8.88642 12.0987 12.0947C8.8902 15.3042 4.53893 17.1099 0 17.1155V23.8913C4.53744 23.8984 8.8871 25.703 12.0962 28.9098C15.3053 32.1166 17.1122 36.4641 17.1212 41H23.8992C23.9063 36.4664 25.7096 32.1202 28.9145 28.9126C32.1194 25.7049 36.4649 23.897 41 23.8845V17.1087C36.4655 17.094 32.121 15.2867 28.9149 12.0811C25.712 8.87467 23.9088 4.53132 23.8992 0ZM20.5102 28.7427C18.4647 25.3582 15.618 22.5287 12.2207 20.5034C15.6182 18.4755 18.465 15.6437 20.5102 12.2573C22.5433 15.644 25.3814 18.4765 28.7725 20.5034C25.3833 22.5298 22.5455 25.3596 20.5102 28.7427Z" fill="#F00000"/>
</svg>
