<svg width="394" height="394" viewBox="0 0 394 394" fill="none" xmlns="http://www.w3.org/2000/svg">
<path d="M276.096 117.864L276.097 117.865C306.787 148.548 348.168 166.1 391.5 166.884V227.049C348.161 227.814 306.771 245.372 276.093 276.076C245.416 306.779 227.902 348.175 227.188 391.5H167.007C166.275 348.152 148.726 306.743 118.009 276.048C87.291 245.352 45.8614 227.826 2.5 227.112V166.954C45.876 166.253 87.3208 148.716 118.033 117.995C148.752 87.2853 166.293 45.8592 167.008 2.5H227.189C227.926 45.8025 245.439 87.1717 276.096 117.864ZM194.958 277.503L197.103 281.052L199.24 277.499C218.588 245.34 245.562 218.44 277.78 199.178L281.369 197.032L277.78 194.887C245.545 175.619 218.568 148.695 199.241 116.503L197.104 112.943L194.958 116.497C175.516 148.689 148.454 175.609 116.157 194.886L112.558 197.034L116.158 199.18C148.452 218.432 175.514 245.33 194.958 277.503Z" fill="#F00000" fill-opacity="0.1" stroke="#F00000" stroke-width="5"/>
</svg>
