<svg width="48" height="48" viewBox="0 0 48 48" fill="none" xmlns="http://www.w3.org/2000/svg">
<g clip-path="url(#clip0_333_35)">
<path d="M39.8803 38.53L30.8803 21.53C30.7103 21.21 30.3703 21 30.0003 21C29.6303 21 29.2903 21.2 29.1203 21.53L27.0103 25.52L34.9703 40H39.0003C39.3503 40 39.6803 39.82 39.8603 39.52C40.0403 39.22 40.0503 38.84 39.8803 38.53Z" fill="#D2C0F4"/>
<path d="M20.0002 24C21.2202 24 22.3602 23.63 23.3302 22.98L21.0002 18.74V16.06C22.1102 16.19 22.8002 16.52 23.5502 16.9C24.5902 17.41 25.7702 18 28.0002 18C28.5502 18 29.0002 17.55 29.0002 17V11C29.0002 10.45 28.5502 10 28.0002 10C26.2402 10 25.4102 9.59 24.4502 9.11C23.4102 8.59 22.2402 8 20.0002 8C19.4502 8 19.0002 8.45 19.0002 9V15V18.74L16.6602 22.99C17.6402 23.65 18.7902 24 20.0002 24Z" fill="#D2C0F4"/>
<path d="M20 26C18.45 26 16.97 25.56 15.69 24.75L8.12003 38.52C7.95003 38.83 7.96003 39.2 8.14003 39.51C8.32003 39.81 8.65003 40 9.00003 40H32.69L24.3 24.74C23.04 25.55 21.56 26 20 26Z" fill="#D2C0F4"/>
</g>
<defs>
<clipPath id="clip0_333_35">
<rect width="32" height="32" fill="white" transform="translate(8 8)"/>
</clipPath>
</defs>
</svg>
