<svg width="48" height="48" viewBox="0 0 48 48" fill="none" xmlns="http://www.w3.org/2000/svg">
<path d="M37 13C37 11.9 36.1 11 35 11H10C8.9 11 8 11.9 8 13V14H37V13Z" fill="#F00000"/>
<path d="M27.02 24.49C26.74 21.51 29.08 19 32 19H37V16H8V32H37V29H32.22C29.61 29 27.27 27.09 27.02 24.49Z" fill="#F00000"/>
<path d="M8 35C8 36.1 8.9 37 10 37H35C36.1 37 37 36.1 37 35V34H8V35Z" fill="#F00000"/>
<path d="M38.9998 21H31.9998C31.1698 21 30.4198 21.34 29.8798 21.88C29.2898 22.47 28.9398 23.3 29.0098 24.22C29.1198 25.82 30.5698 27 32.1698 27H38.9998C39.5498 27 39.9998 26.55 39.9998 26V22C39.9998 21.45 39.5498 21 38.9998 21ZM31.9998 25C31.4498 25 30.9998 24.55 30.9998 24C30.9998 23.45 31.4498 23 31.9998 23C32.5498 23 32.9998 23.45 32.9998 24C32.9998 24.55 32.5498 25 31.9998 25Z" fill="#F00000"/>
</svg>
